<svg width="696" height="459" viewBox="0 0 696 459" fill="none" xmlns="http://www.w3.org/2000/svg">
<mask id="mask0_988_813" style="mask-type:alpha" maskUnits="userSpaceOnUse" x="10" y="4" width="682" height="447">
<path d="M63.8149 35.983L10.2394 101.376V422.533L46.2197 450.518H179.48L203.467 422.533H663.215L691.2 374.56V266.619L663.215 227.973V35.983L613.909 4.09564H487.312L443.607 35.983H63.8149Z" fill="#D9D9D9"/>
</mask>
<g mask="url(#mask0_988_813)">
<rect x="10.2393" y="-8.19122" width="683.03" height="507.857" fill="#C4C4C4"/>
</g>
<path d="M665.263 227.309L692.859 265.418L693.248 265.955V375.113L692.969 375.592L664.984 423.565L664.392 424.581H204.409L181.035 451.851L180.422 452.565H45.5167L44.962 452.135L8.98254 424.149L8.19153 423.535V100.644L8.6554 100.078L62.2306 34.6855L62.8448 33.9355H442.94L486.105 2.44135L486.644 2.04779H614.514L615.021 2.37592L664.327 34.2636L665.263 34.8681V227.309Z" stroke="#8166E3" stroke-width="4.09562"/>
<path d="M122.87 22.5259L104.439 47.0996H323.555L337.89 22.5259H122.87Z" fill="#D9D9D9"/>
<path d="M122.87 22.5259L104.439 47.0996H323.555L337.89 22.5259H122.87Z" fill="#8166E3"/>
<path d="M466.901 34.8128L491.475 16.3825H610.248L649.156 40.9562V221.163" stroke="#8166E3" stroke-width="4.09562"/>
<rect x="247.786" y="413.658" width="225.259" height="20.4781" fill="#8166E3"/>
<rect x="493.521" y="413.658" width="126.964" height="20.4781" fill="#8166E3"/>
<path d="M18.4303 358.366L0 348.127L2.04781 423.896L38.9084 458.709H135.155L118.773 442.326H51.1952L18.4303 413.657V358.366Z" fill="#8166E3"/>
</svg>
