<svg width="4369" height="860" viewBox="0 0 4369 860" fill="none" xmlns="http://www.w3.org/2000/svg">
<path d="M314.316 626.553C487.385 626.553 627.685 486.295 627.685 313.277C627.685 140.259 487.385 0 314.316 0C141.248 0 0.948242 140.259 0.948242 313.277C0.948242 486.295 141.248 626.553 314.316 626.553Z" fill="white"/>
<path d="M1087 859.129C1070.59 853.66 1053.27 852.252 1036.45 847.529C911.631 812.564 821.54 695.158 817.313 565.986V16.3224C856.184 17.3995 891.657 26.845 924.643 46.9789C976.028 78.2983 1015.48 139.446 1019.71 200.179C1027.5 313.359 1012.58 435.654 1019.54 549.249C1028.41 694.909 1213.89 686.292 1224 557.617C1231.21 465.814 1218.87 364.73 1224 271.766C1231.88 127.763 1337.88 23.6965 1481.93 16.3224C1623.07 21.708 1769.1 9.44535 1909.67 16.3224C2016.91 21.5423 2112.72 72.8298 2173.56 160.74L2205.55 218.158C2205.13 107.546 2297.21 16.7366 2407.78 16.4052V681.569C2407.78 717.446 2373.3 776.522 2348.02 801.71C2316.36 833.278 2276 849.517 2232.9 859.211H2205.55V443.111L2176.95 495.476C2143.55 549 2089.43 594.902 2030.67 618.599C1936.69 656.464 1828.61 635.087 1729.49 640.721C1734.05 733.354 1680.01 818.861 1591.58 848.855C1579.48 852.997 1566.38 854.323 1554.61 859.294H1525.11V479.816C1527.34 437.643 1539.11 399.198 1563.4 364.73C1601.11 311.205 1663.85 280.549 1729.4 279.223V438.968H1915.8C1953.51 438.968 1993.96 410.715 2010.28 377.738C2047.41 302.754 1992.3 227.024 1913.73 220.313H1483.83C1456.23 223.295 1433.86 245.418 1428.3 272.097C1417.36 469.625 1482.92 702.697 1275.8 819.772C1238.59 840.818 1200.38 851.506 1158.53 859.377H1086.92L1087 859.129Z" fill="#EC1E25"/>
<path d="M4368.71 400.938C4368.38 404.998 4369.2 409.555 4368.71 413.532C4362.33 464.074 4307.96 531.187 4253.92 531.187H3395.62C3393.3 462.748 3447.75 406.075 3514.88 399.032C3795.26 404.915 4076.97 390.249 4357.27 398.701C4361.25 398.784 4365.23 398.535 4368.79 400.855L4368.71 400.938ZM4105.15 428.612C4102.66 424.8 4082.36 423.64 4077.22 424.303C4053.93 427.369 4045.48 454.131 4066.11 466.559C4072.91 470.619 4092.22 472.442 4090.4 481.556C4087.99 493.405 4062.47 484.042 4055.01 480.81C4049.12 502.684 4073.99 504.176 4089.65 501.69C4110.54 498.376 4117.91 469.956 4098.6 459.351C4090.81 455.125 4071.09 455.042 4073.82 442.117C4075.56 434.08 4100.76 442.117 4105.56 445.017C4104.74 441.04 4106.97 431.097 4105.32 428.529L4105.15 428.612ZM3671.52 426.209H3652.54V499.784H3671.52C3672.52 490.422 3667.88 478.739 3676.74 472.525C3678.9 472.525 3693.15 498.293 3695.06 499.37C3698.79 501.524 3712.38 498.707 3717.77 499.784L3690.67 458.44C3689.76 452.391 3719.01 429.274 3715.7 426.292C3710.23 427.369 3696.88 424.469 3692.99 426.706C3689.09 428.943 3677.99 452.225 3671.44 455.705V426.292L3671.52 426.209ZM3772.39 426.374C3766.5 426.623 3754.4 424.22 3750.42 428.197L3724.15 499.702C3747.77 502.933 3738.16 495.973 3744.95 486.279C3746.03 484.705 3770.32 484.042 3773.38 484.87C3776.03 485.616 3775.12 496.304 3778.77 498.707C3782.42 501.11 3791.04 499.039 3795.68 499.702L3772.3 426.374H3772.39ZM3806.29 426.209V499.784H3825.26V453.551L3847.39 478.822C3853.2 469.956 3858.58 459.765 3867.45 453.551V499.784H3886.43V426.209C3863.72 420.989 3858.75 438.803 3847.48 453.551L3827.01 426.706L3806.37 426.209H3806.29ZM3946.43 426.209C3934.09 423.723 3914.44 428.032 3901.18 426.209V499.784H3920.16C3920.83 496.056 3919.25 477.496 3920.16 476.668C3921.65 475.176 3949.5 480.976 3959.94 464.819C3968.56 451.397 3962.6 429.44 3946.52 426.209H3946.43ZM3995.91 426.209H3974.86V473.519C3974.86 474.265 3977.51 486.03 3977.93 487.273C3985.14 507.076 4024.92 507.987 4036.94 491.333C4037.93 489.925 4042.24 480.562 4042.24 479.816V426.209H4023.26V479.816C4023.26 488.185 3995.91 490.836 3995.91 479.816V426.209Z" fill="#009AD7"/>
<path d="M4362.41 75.2331C4363.65 133.895 4321.63 187.337 4265.52 202.333C4260.22 203.742 4245.71 207.636 4241.32 207.636H2609.92C2610.83 153.449 2643.07 104.315 2693.63 84.0986C2698.77 82.0272 2718.57 75.2331 2722.63 75.2331H4362.41Z" fill="#401312"/>
<path d="M324.511 268.534C329.318 268.12 339.264 270.689 341.087 265.054C343.408 258.012 342.33 236.552 343.491 227.521C350.121 176.813 368.52 117.737 419.243 96.0292L410.872 33.1419C494.498 59.6556 568.012 129.834 594.119 213.85C502.371 214.015 413.938 253.372 351.944 320.071L312.908 369.37C252.406 273.423 146.403 213.27 31.6973 213.85C58.3845 139.943 115.24 76.9724 186.848 43.9959C192.898 41.1789 208.397 34.1361 213.95 33.1419C217.265 32.5619 217.348 32.7276 216.685 35.8761C212.872 55.6786 211.463 75.9782 208.894 95.9464C259.865 118.814 279.093 179.962 284.48 231.747C286.221 248.815 276.607 273.174 303.46 268.534V121.466C307.438 121.632 324.511 119.974 324.511 124.614V268.617V268.534Z" fill="#EC1E25"/>
<path d="M332.966 421.983C367.029 343.519 450.323 288.006 532.954 271.683C544.392 269.446 605.391 261.74 610.033 268.452C610.778 269.529 612.933 290.823 613.182 294.8C616.995 360.173 599.59 429.771 561.134 482.799C558.15 483.71 517.787 463.328 510.411 460.345C454.633 438.057 392.888 425.546 332.883 421.983H332.966Z" fill="#231F20"/>
<path d="M295.004 421.983C238.481 425.048 181.128 436.565 128.085 456.119C107.033 463.907 87.4737 474.347 66.8367 482.716C20.4241 420.905 8.07498 342.193 16.9431 266.463C129.079 259.586 246.934 318.745 295.004 421.983Z" fill="#231F20"/>
<path d="M3339.76 596.394C3354.18 597.885 3380.12 606.751 3390.4 617.356C3404.73 632.104 3409.87 667.484 3398.68 684.552C3395.95 688.695 3376.64 703.277 3378.79 705.68C3434.82 723.08 3426.61 801.047 3374.57 820.186C3368.68 822.341 3347.3 827.561 3341.99 827.561H3222.98V596.394C3260.28 599.294 3303.29 592.499 3339.92 596.394H3339.76ZM3279.75 686.789H3331.39C3332.71 686.789 3342.49 680.326 3343.98 678.338C3348.96 671.544 3348.38 655.884 3343.98 649.09C3342.57 646.935 3332.8 640.556 3331.47 640.556H3279.83V686.789H3279.75ZM3279.75 783.481H3337.68C3350.12 783.481 3359.4 766.165 3359.4 755.145C3359.4 744.125 3348.87 728.88 3337.68 728.88H3279.75V783.564V783.481Z" fill="#009AD7"/>
<path d="M3837.95 827.643H3769.49C3760.54 819.855 3725.73 747.771 3721 747.771H3688.35V827.643H3631.49V596.477H3763.11C3764.85 596.477 3784.07 602.608 3787.31 603.851C3846.9 627.713 3838.61 717.28 3781.09 738.325L3837.95 827.643ZM3688.35 707.834C3710.06 706.012 3749.84 714.38 3763.02 693.003C3769.9 681.735 3768.91 654.724 3757.8 645.858C3755.48 643.953 3742.22 638.401 3739.98 638.401H3688.35V707.752V707.834Z" fill="#009AD7"/>
<path d="M3970.64 596.394V742.468C3970.64 744.788 3973.29 758.791 3974.2 762.022C3984.31 800.053 4044.82 799.97 4057.5 765.999C4058.16 764.176 4061.23 753.737 4061.23 752.908V596.311H4116.01V754.98C4116.01 851.921 3946.77 860.372 3919.09 783.316C3914.36 770.142 3912.37 750.34 3911.54 736.171C3909.06 690.352 3913.53 642.296 3911.63 596.311H3970.64V596.394Z" fill="#009AD7"/>
<path d="M3005.92 655.304C2990 650.167 2977.07 640.307 2960.08 636.91C2904.97 625.973 2877.04 652.404 2875.21 706.675C2873.39 761.442 2895.35 794.419 2954.03 787.459C2972.68 785.222 2988.92 774.202 3005.83 768.733V813.89C2958.51 840.652 2875.46 840.901 2839.49 794.916C2811.06 758.625 2811.4 676.847 2833.53 637.739C2865.77 580.817 2954.53 580.817 3005.83 609.982V655.138L3005.92 655.304Z" fill="#009AD7"/>
<path d="M3547.2 596.394H3490.35V827.561H3547.2V596.394Z" fill="#009AD7"/>
<path d="M3138.61 596.394H3083.82V827.561H3138.61V596.394Z" fill="#009AD7"/>
<path d="M322.355 487.19L324.427 440.957C386.919 440.708 451.565 454.545 509.166 478.407C518.697 482.385 538.837 490.421 546.379 495.89C548.12 497.133 550.44 497.796 549.777 500.696C549.031 503.927 511.818 541.958 507.011 541.543C453.305 504.756 387.25 487.77 322.355 487.19Z" fill="#231F20"/>
<path d="M301.056 441.206C303.956 443.029 304.868 480.397 305.614 487.191C248.51 487.274 189.914 501.608 139.855 528.867C132.561 532.844 121.953 544.693 114.825 539.887C102.559 531.601 89.3808 511.219 78.3578 500.531C76.0372 493.819 80.8442 496.222 85.817 493.902C154.193 462.251 224.309 439.217 301.056 441.206Z" fill="#231F20"/>
<path d="M305.529 503.927V548.089C264.835 547.592 224.058 562.589 192.564 587.694C190.161 588.191 164.634 574.603 160.407 572.117C156.18 569.632 138.444 558.861 136.289 556.706C134.383 554.718 134.631 554.138 134.88 551.404C184.691 518.179 245.856 503.182 305.612 504.01L305.529 503.927Z" fill="#231F20"/>
<path d="M322.437 503.927C373.325 503.43 427.362 514.201 472.034 538.561C475.515 540.467 490.185 548.421 491.677 549.995C493.583 551.984 493.335 552.563 493.086 555.298C474.687 567.312 456.37 579.906 435.484 587.529C403.576 562.672 363.296 547.675 322.437 548.006V503.844V503.927Z" fill="#231F20"/>
<path d="M2721.56 260.167L2738.38 261.244L2782.64 321.148V260.167H2801.62V354.705C2795.73 354.29 2788.52 356.362 2783.55 352.716C2769.63 335.648 2757.53 315.1 2743.27 298.529C2741.95 297.037 2743.35 294.552 2738.46 295.877V354.705H2721.64V260.167H2721.56Z" fill="#401312"/>
<path d="M4341.36 321.148V260.166H4358.18V354.704C4352.79 354.539 4347.24 356.03 4342.27 352.716C4334.31 347.496 4312.6 311.454 4303.4 301.18C4301.66 299.274 4299.75 296.457 4297.18 295.877V354.704H4278.2V260.166C4282.6 260.498 4287.65 259.42 4291.88 260.166C4303.65 262.403 4329.17 312.199 4341.44 321.065L4341.36 321.148Z" fill="#401312"/>
<path d="M3776.87 318.994V263.315C3776.87 258.924 3792.28 260.167 3795.85 260.167V354.705L3779.43 354.208C3765.35 337.471 3753.08 315.265 3738.58 299.357C3736.67 297.286 3736.67 294.883 3732.61 295.794V354.622H3715.78V260.084C3721.75 260.498 3728.8 258.427 3733.85 262.072L3776.87 318.994Z" fill="#401312"/>
<path d="M3086.97 260.166C3122.12 264.475 3125.51 303.583 3096.42 318L3119.63 354.705C3114.32 353.628 3098 356.445 3094.68 354.373C3092.86 353.213 3081.09 326.285 3076.61 323.054C3071.72 319.491 3064.43 321.562 3058.55 321.148V354.787H3039.57V260.249C3054.57 261.575 3072.3 258.427 3086.97 260.249V260.166ZM3058.55 306.4C3073.38 305.654 3094.77 311.951 3094.6 290.574C3094.43 270.855 3072.14 278.146 3058.55 276.903V306.317V306.4Z" fill="#401312"/>
<path d="M2723.63 455.623V398.867H2740.45V491.334L2723.63 490.256L2679.37 432.506V491.334H2660.39V398.867C2665.78 399.613 2674.81 397.21 2679.37 399.944C2685.92 403.921 2708.54 443.443 2717.33 452.474C2719.32 454.546 2720.15 456.451 2723.63 455.623Z" fill="#401312"/>
<path d="M3953.73 354.705V260.167H3992.68C3993.6 260.167 4006.86 262.735 4008.51 263.232C4040.92 273.009 4042.58 333.659 4017.63 348.076C4015.39 349.402 4000.47 354.705 3998.98 354.705H3953.73ZM3972.71 337.885C4000.64 340.122 4016.39 336.559 4014.9 305.24C4013.57 276.489 3997.74 275.495 3972.71 276.986V337.968V337.885Z" fill="#401312"/>
<path d="M3816.89 354.705V260.167H3855.85C3857.26 260.167 3870.43 263.398 3872.84 264.226C3899.69 273.672 3903.67 317.337 3889.91 338.216C3885.68 344.679 3869.19 354.705 3862.23 354.705H3816.98H3816.89ZM3835.79 337.885C3861.24 339.956 3878.14 336.394 3878.06 307.394C3877.98 278.395 3860.57 274.086 3835.79 276.903V337.885Z" fill="#401312"/>
<path d="M2961.66 398.866L2980.14 399.364C2993.24 417.923 3006 437.146 3020.01 455.125C3021.33 456.865 3020.01 458.937 3024.81 457.777V398.949H3041.64V491.416C3035.75 491.002 3028.54 493.073 3023.57 489.428L2978.4 430.434V491.416H2961.58V398.949L2961.66 398.866Z" fill="#401312"/>
<path d="M2889.47 397.292C2910.94 393.646 2934.73 402.097 2941.69 424.054C2953.87 462.416 2934.97 499.038 2891.21 493.321C2843.23 487.024 2842.4 405.329 2889.39 397.292H2889.47ZM2891.55 414.029C2870 418.917 2869.67 467.47 2888.48 475.01C2913.43 485.036 2925.36 467.222 2925.03 444.354C2924.7 421.486 2915.33 408.56 2891.55 413.946V414.029Z" fill="#401312"/>
<path d="M2761.59 491.333V398.866H2809C2814.8 398.866 2828.14 406.655 2832.2 411.378C2846.87 428.363 2845.88 470.205 2826.73 483.793C2824.66 485.285 2812.48 491.25 2811.07 491.25H2761.59V491.333ZM2780.57 413.615V476.668C2809 478.905 2824.25 472.442 2822.76 441.868C2821.43 413.615 2805.1 412.538 2780.57 413.615Z" fill="#401312"/>
<path d="M4111.78 300.103C4122.47 292.232 4136.4 261.658 4148.5 260.084C4154.05 259.338 4160.76 260.746 4166.48 260.166C4167.48 263.812 4164.91 264.392 4163.33 266.463C4158.86 272.346 4132.5 298.86 4133.08 302.837C4137.97 314.271 4166.81 342.111 4168.64 351.556C4169.47 355.782 4168.06 354.373 4165.49 354.705C4161.84 355.202 4149.82 355.367 4146.84 354.373C4143.61 353.296 4122.31 322.805 4120.15 316.922C4117.42 314.685 4111.78 323.634 4111.78 324.297V354.787H4090.73V263.398C4090.73 258.841 4111.78 258.841 4111.78 263.398V300.186V300.103Z" fill="#401312"/>
<path d="M2681.53 260.166H2700.51V326.367C2700.51 331.422 2692.22 345.921 2687.82 349.401C2671.99 361.912 2633.21 359.095 2624.26 339.459C2623.68 338.133 2620.53 327.03 2620.53 326.367V260.166C2626 260.912 2639.34 257.514 2641.33 263.646C2646.38 278.891 2635.2 323.053 2645.8 334.819C2656.41 346.584 2681.69 339.127 2681.69 322.142V260.166H2681.53Z" fill="#401312"/>
<path d="M3020.67 260.167V276.986H2976.41V300.103H3014.29V314.851H2979.56C2974.75 314.851 2976.66 333.742 2976.41 337.968H3020.67V354.787H2957.52V260.249H3020.67V260.167Z" fill="#401312"/>
<path d="M3561.96 323.22V354.705H3542.98V260.167H3588.23C3590.3 260.167 3602.24 265.221 3604.72 266.795C3617.98 275.329 3619.39 294.634 3612.85 307.891C3604.81 324.214 3577.46 323.634 3561.88 323.22H3561.96ZM3561.96 308.471C3576.13 308.803 3596.6 309.88 3595.77 290.657C3594.94 271.435 3575.38 277.815 3561.96 276.986V308.471Z" fill="#401312"/>
<path d="M3696.8 276.986H3652.55V300.103H3690.42V314.851H3652.55V337.968H3693.66C3697.72 337.968 3696.97 351.39 3696.8 354.787H3633.65V260.249H3693.66C3697.72 260.249 3696.97 273.672 3696.8 277.069V276.986Z" fill="#401312"/>
<path d="M4265.52 354.704C4236.85 360.172 4247.54 343.601 4239.25 333.658C4236.27 330.096 4203.86 329.764 4200.63 335.067C4192.67 348.075 4202.54 358.681 4175.02 354.704L4211.07 260.414C4216.54 260.414 4229.64 258.177 4232.95 262.237L4265.52 354.704ZM4231.79 316.922C4233.12 315.679 4223.67 286.762 4220.19 283.365C4218.28 283.365 4206.85 315.099 4208.59 316.922H4231.79Z" fill="#401312"/>
<path d="M3410.29 354.704C3381.61 360.173 3392.3 343.602 3384.01 333.659C3381.03 330.096 3348.62 329.765 3345.39 335.067C3337.44 348.076 3347.3 358.681 3319.78 354.704C3327.24 344.099 3351.61 263.149 3355.92 260.415C3357.82 259.172 3375.06 259.255 3377.8 262.237L3410.45 354.704H3410.29ZM3376.64 316.922L3375.23 306.814L3364.04 281.211C3363.96 287.177 3350.78 314.188 3353.51 316.922H3376.72H3376.64Z" fill="#401312"/>
<path d="M3313.07 399.198C3317.21 401.767 3340.34 480.894 3347.13 491.334C3342.49 490.422 3329.23 492.908 3326.33 491.085C3324.34 489.842 3321.52 471.034 3318.29 470.288C3311.99 471.531 3283.81 468.383 3281.49 471.614C3273.04 483.794 3284.39 496.056 3256.46 491.334L3290.36 399.116C3291.19 398.37 3311.66 398.453 3312.99 399.281L3313.07 399.198ZM3313.4 453.469C3309.51 441.869 3307.02 426.789 3298.65 417.758L3288.12 453.469H3313.4Z" fill="#401312"/>
<path d="M289.456 25.5196C325.509 -8.28547 373.496 51.5362 334.045 79.4585C298.324 104.729 259.536 53.6076 289.456 25.5196Z" fill="#FDB714"/>
<path d="M3126.01 398.866V413.615H3081.75V436.731H3119.63V453.551H3081.75V476.668H3126.01V491.333H3062.77V398.866H3126.01Z" fill="#401312"/>
<path d="M3481.9 283.283C3479.99 285.437 3459.69 268.12 3445.26 277.234C3437.97 281.874 3439.38 290.243 3446.18 294.8C3461.34 304.825 3486.95 299.357 3486.29 328.522C3485.63 355.367 3456.12 359.676 3434.74 354.539C3417.33 350.313 3420.4 349.567 3420.82 331.67C3431.09 337.056 3464.91 348.987 3466.73 330.262C3468.22 314.354 3426.12 317.668 3421.31 294.385C3415.1 263.977 3447.83 253.786 3471.45 261.16C3484.8 265.303 3481.98 270.772 3481.9 283.283Z" fill="#401312"/>
<path d="M2874.97 260.497C2878.03 262.403 2895.6 320.816 2898.5 329.516C2901.49 329.267 2901.82 326.45 2902.81 324.379C2907.95 313.194 2920.3 266.794 2924.78 262.237C2928.84 258.095 2939.12 260.912 2944.83 260.166C2939.45 271.103 2912.59 353.627 2907.62 354.787C2905.55 355.284 2889.22 355.036 2888.23 354.456C2884 351.721 2858.14 271.351 2854.25 260.166C2859.05 261.16 2871.82 258.592 2874.97 260.497Z" fill="#401312"/>
<path d="M3201.6 401.186C3203.01 402.843 3201.02 416.1 3201.76 419.912C3191.82 415.189 3162.98 403.672 3161.98 423.06C3161.4 433.914 3185.52 437.56 3193.47 441.868C3219.58 456.12 3208.14 489.593 3181.62 493.322C3173.09 494.482 3144.66 493.819 3142.84 484.042C3141.92 479.402 3143.42 473.188 3142.84 468.216C3151.37 475.425 3187.34 486.528 3187.26 467.139C3187.26 454.96 3164.72 452.723 3156.1 447.585C3132.48 433.666 3141.01 400.524 3167.28 396.878C3173 396.049 3198.61 397.624 3201.68 401.104L3201.6 401.186Z" fill="#401312"/>
<path d="M3193.06 264.64C3194.8 267.374 3192.48 278.891 3193.31 283.282C3187.59 282.371 3184.36 277.897 3178.23 276.323C3169.36 274.003 3153.94 272.097 3153.45 284.442C3152.87 299.025 3174.08 298.362 3184.28 303.831C3212.7 319.159 3197.21 356.361 3164.8 356.858C3160.66 356.858 3136.04 352.384 3134.63 350.23C3132.89 347.496 3135.21 335.896 3134.38 331.587C3143.91 341.033 3187.26 346.916 3177.56 325.373C3171.85 312.53 3132.23 317.75 3132.64 286.431C3132.89 267.291 3150.21 259.089 3167.29 258.923C3171.27 258.923 3191.57 262.569 3192.98 264.723L3193.06 264.64Z" fill="#401312"/>
<path d="M305.533 562.837V613.296C278.265 612.882 239.975 608.905 214.945 597.471C212.624 596.394 209.641 597.471 210.718 593.411C211.05 592.085 230.858 580.071 233.842 578.58C255.39 567.974 281.58 563.086 305.533 562.92V562.837Z" fill="#231F20"/>
<path d="M322.437 562.837C354.76 564.08 395.205 571.289 417.251 596.477C386.668 605.922 354.842 614.622 322.437 613.296V562.837Z" fill="#231F20"/>
<path d="M3323.93 260.167L3324.01 276.986H3296.58V354.705H3275.53V276.986H3248.09L3248.18 260.167H3323.93Z" fill="#401312"/>
<path d="M4071.75 260.167H4050.7V354.705H4071.75V260.167Z" fill="#401312"/>
<path d="M2841.65 260.167H2822.67V354.705H2841.65V260.167Z" fill="#401312"/>
<path d="M3932.76 260.167H3913.78V354.705H3932.76V260.167Z" fill="#401312"/>
<path d="M3243.95 398.866H3224.97V491.333H3243.95V398.866Z" fill="#401312"/>
<path d="M2639.42 398.866H2620.45V491.333H2639.42V398.866Z" fill="#401312"/>
<path d="M3233.34 260.167H3216.51V354.705H3233.34V260.167Z" fill="#401312"/>
<path d="M3806.29 426.209L3826.92 426.706L3847.4 453.551C3858.75 438.803 3863.64 420.989 3886.35 426.209V499.785H3867.37V453.551C3858.58 459.766 3853.11 469.957 3847.31 478.822L3825.18 453.551V499.785H3806.2V426.209H3806.29Z" fill="#FDFDFD"/>
<path d="M3995.91 426.208V479.816C3995.91 490.836 4023.26 488.184 4023.26 479.816V426.208H4042.24V479.816C4042.24 480.562 4037.93 489.924 4036.94 491.333C4024.92 507.987 3985.14 507.076 3977.93 487.273C3977.51 486.03 3974.86 474.182 3974.86 473.519V426.208H3995.91Z" fill="#FDFDFD"/>
<path d="M3671.53 426.209V455.622C3678.07 452.225 3689.1 428.943 3693.07 426.623C3697.05 424.303 3710.31 427.203 3715.78 426.209C3719.18 429.192 3689.84 452.391 3690.75 458.357L3717.86 499.702C3712.47 498.624 3698.88 501.442 3695.15 499.287C3693.24 498.21 3678.98 472.525 3676.83 472.442C3667.96 478.739 3672.52 490.339 3671.61 499.702H3652.63V426.126H3671.61L3671.53 426.209Z" fill="#FDFDFD"/>
<path d="M3946.43 426.208C3962.51 429.44 3968.48 451.396 3959.86 464.819C3949.5 480.976 3921.65 475.093 3920.08 476.667C3919.25 477.496 3920.74 496.055 3920.08 499.784H3901.1V426.208C3914.36 428.031 3934 423.723 3946.35 426.208H3946.43ZM3920.08 461.919C3952.24 467.967 3952.24 434.908 3920.08 440.874V461.919Z" fill="#FDFDFD"/>
<path d="M3772.39 426.375L3795.76 499.702C3791.12 499.122 3782.58 501.193 3778.85 498.708C3775.12 496.222 3776.12 485.534 3773.47 484.871C3770.4 484.042 3746.12 484.705 3745.04 486.279C3738.24 495.974 3747.86 502.933 3724.24 499.702L3750.51 428.198C3754.49 424.221 3766.59 426.541 3772.47 426.375H3772.39ZM3768.41 470.288C3769.41 469.377 3761.78 446.26 3757.89 445.1L3751.59 470.288H3768.41Z" fill="#FDFDFD"/>
<path d="M4105.15 428.611C4106.81 431.18 4104.66 441.123 4105.4 445.1C4100.68 442.117 4075.4 434.163 4073.66 442.2C4070.92 455.042 4090.65 455.125 4098.44 459.434C4117.67 469.956 4110.37 498.459 4089.49 501.773C4073.82 504.259 4048.96 502.767 4054.84 480.893C4062.3 484.125 4087.91 493.487 4090.23 481.639C4092.06 472.525 4072.75 470.702 4065.95 466.642C4045.31 454.214 4053.77 427.451 4077.06 424.386C4082.19 423.723 4102.58 424.883 4104.99 428.694L4105.15 428.611Z" fill="#FDFDFD"/>
<path d="M3920.08 461.919V440.874C3952.24 434.825 3952.24 467.967 3920.08 461.919Z" fill="#009AD7"/>
<path d="M3768.41 470.288H3751.59L3757.88 445.1C3761.78 446.26 3769.41 469.377 3768.41 470.288Z" fill="#009AD7"/>
</svg>
