<svg width="4161" height="856" viewBox="0 0 4161 856" fill="none" xmlns="http://www.w3.org/2000/svg">
<g clip-path="url(#clip0_494_72)">
<path d="M2045.7 204.702L2163.27 479.963L2279.16 204.702H2410.16C2410.34 204.702 2412.66 207.027 2412.66 207.21V648.606C2412.66 648.79 2410.31 651.114 2410.16 651.114H2307.72C2307.54 651.114 2305.21 648.79 2305.21 648.606V377.566L2196.91 646.129C2195.62 647.842 2193.79 647.658 2191.96 647.872C2173.33 650.105 2150.46 645.915 2131.32 647.872L2019.71 375.853V651.114H1916.42C1916.24 651.114 1913.91 648.79 1913.91 648.606V207.21C1913.91 207.027 1916.27 204.702 1916.42 204.702H2045.73H2045.7Z" fill="#BCBCBC"/>
<path d="M970.013 208.036L780.676 318.569L773.98 317.529L613.111 221.524L464.504 309.607V312.91L576.571 378.973C586.386 375.486 590.912 365.944 603.173 364.262C663.044 355.973 675.673 432.588 628.308 448.125C593.48 459.563 561.863 429.346 571.587 393.654L568.529 390.198C464.29 329.365 359.715 268.93 256.209 207.18L259.023 203.295L613.111 0L968.27 203.938L970.013 208.036ZM608.494 379.646C579.659 384.203 578.283 427.786 607.149 433.903C650.294 443.017 651.884 372.795 608.494 379.646Z" fill="#D9D9D6"/>
<path d="M1334.47 382.613H1507.45V204.702H1614.93V651.145H1507.45V471.552H1334.47V648.606C1334.47 648.79 1332.11 651.114 1331.96 651.114H1225.31V204.702H1331.96C1332.14 204.702 1334.47 207.027 1334.47 207.21V382.582V382.613Z" fill="#BCBCBC"/>
<path d="M3549.66 513.514V648.606C3549.66 648.79 3547.31 651.114 3547.15 651.114H3440.5V204.702C3502.73 207.21 3567.55 201.369 3629.5 204.641C3683.22 207.486 3732.91 226.234 3763 272.631C3796.82 324.777 3794.74 405.153 3756.95 454.639C3707.5 519.387 3623.32 514.218 3549.66 513.514ZM3549.66 426.226H3617.67C3622.34 426.226 3638.92 419.712 3643.75 417.051C3684.23 394.755 3684.78 325.083 3643.75 302.848C3638.77 300.157 3622.53 293.642 3617.7 293.642H3549.69V426.226H3549.66Z" fill="#BCBCBC"/>
<path d="M3007.18 394.357C3092.04 409.343 3177.41 450.571 3242.3 506.816C3282.05 541.224 3322.53 589.333 3347.76 635.547C3349.32 638.36 3353.54 645.334 3354.09 647.719C3354.52 649.554 3352.89 651.145 3352.28 651.145H3236.39C3202.85 605.788 3164.51 572.481 3116.32 543.732C3079.32 521.68 3049.72 509.171 3007.15 500.088C2964.59 491.004 2923.22 487.426 2879.52 491.708C2841 495.469 2808.71 505.562 2773.72 520.243C2772.44 520.793 2769.87 520.518 2767.55 521.527C2703.67 549.543 2648.39 593.891 2607.47 650.319L2488.22 651.145C2487.24 647.903 2488.92 646.618 2489.9 644.447C2491.58 643.927 2491.4 642.52 2491.59 641.082C2491.65 640.532 2491.49 639.951 2491.59 639.4C2503.88 623.129 2513.48 605.023 2525.5 588.508C2561.94 538.349 2612 492.564 2664.59 459.808C2688.93 444.638 2715.05 431.487 2741.86 421.21C2774.34 408.762 2809.93 398.272 2844.3 392.675C2895.12 384.417 2956.49 385.396 3007.21 394.357H3007.18Z" fill="#9F2C2D"/>
<path d="M236.09 266.789L332.684 322.147C337.179 323.523 335.681 308.384 333.51 306.212L81.581 163.413C78.0646 162.557 69.1359 171.854 63.7237 174.301C18.7746 194.487 -18.9887 141.882 10.3352 105.853C30.2718 81.3854 71.6739 86.1566 84.7 115.151C90.5097 128.119 86.7486 137.936 89.3477 151.179L434.263 346.523L436.281 531.651L580.363 612.547V486.661C573.942 482.991 543.425 469.014 540.918 464.824C538.41 460.634 540.857 451.305 540.062 446.381L597.15 476.568V723.294L236.059 517.704V429.59L332.684 483.236C337.302 484.581 334.764 470.849 334.794 468.524L169.308 374.446C165.883 373.59 156.343 383.469 151.053 385.763C115.094 401.269 78.034 368.024 90.8155 330.619C95.769 316.152 105.737 304.897 121.393 302.45C159.401 296.517 182.304 324.38 174.629 360.775L236.028 394.357V349.031L332.654 402.676C337.118 403.961 335.589 388.943 333.449 386.741L128.548 270.795C122.494 269.327 116.44 278.197 110.141 281.102C73.7838 297.924 37.2435 264.434 49.1076 226.815C60.9717 189.196 116.44 186.902 131.667 224.185C136.926 237.061 134.572 244.951 133.838 258.103L236.028 313.736V266.728L236.09 266.789ZM25.0431 114.631C10.7022 128.975 17.735 158.489 38.7112 161.089C81.4281 166.38 81.581 109.584 47.2424 107.26C39.598 106.74 30.547 109.156 25.0736 114.631H25.0431ZM87.9412 213.449C58.0057 216.386 54.7951 261.07 83.1405 267.737C128.304 278.38 129.068 209.412 87.9412 213.449ZM112.403 326.123C86.5346 353.343 128.823 390.779 153.041 364.201C177.258 337.623 136.223 301.044 112.403 326.123Z" fill="#9E2A2B"/>
<path d="M3976.25 562.174H4161V648.606C4161 648.79 4158.65 651.114 4158.49 651.114H3869.63C3869.44 651.114 3867.12 648.79 3867.12 648.606V207.21C3867.12 207.027 3869.47 204.702 3869.63 204.702H3973.74C3973.93 204.702 3976.25 207.027 3976.25 207.21V562.174Z" fill="#BCBCBC"/>
<path d="M3242.33 506.786C3177.41 450.571 3092.04 409.313 3007.21 394.326V204.672H3197.81C3297.49 208.525 3360.6 276.301 3353.14 376.649C3348.34 441.365 3304.06 490.362 3242.33 506.755V506.786ZM3116.38 426.226H3184.38C3188.23 426.226 3202.76 420.752 3207.1 418.733C3250.89 398.302 3253.12 326.001 3210.43 302.848C3205.45 300.157 3189.21 293.642 3184.38 293.642H3116.38V426.226Z" fill="#BCBCBC"/>
<path d="M990.163 236.602V651.145L633.231 855.878C629.715 856.367 631.152 855.633 630.785 853.4C630.112 849.027 629.256 842.696 629.011 838.383C627.391 811.438 629.103 781.557 631.06 754.673C720.469 700.386 812.813 649.768 903.69 597.469L904.791 284.742C932.739 267.584 960.32 249.906 990.163 236.633V236.602Z" fill="#DE754C"/>
<path d="M2844.3 392.675C2809.9 398.241 2774.34 408.762 2741.86 421.21L2709.14 318.844L2664.62 459.808C2612.03 492.564 2561.97 538.349 2525.53 588.508C2513.54 605.023 2503.91 623.129 2491.62 639.4L2637.65 205.498H2780.54L2844.3 392.705V392.675Z" fill="#BCBCBC"/>
<path d="M1710.66 651.145V207.21C1710.66 207.027 1713.02 204.702 1713.17 204.702H1817.29C1817.47 204.702 1819.79 207.027 1819.79 207.21V648.606C1819.79 648.79 1817.44 651.114 1817.29 651.114H1710.63L1710.66 651.145Z" fill="#BCBCBC"/>
<path d="M877.638 300.371V583.155L629.073 724.976L628.981 494.154C630.877 488.649 629.012 478.495 633.415 475.1C640.173 469.84 665.552 459.93 669.374 455.648C670.75 454.089 671.27 452.773 671.117 450.694L670.75 360.225C670.108 358.237 639.775 341.048 635.188 338.632C633.415 337.714 629.593 337.561 629.195 337.133C627.972 335.757 629.654 322.239 629.012 318.874C630.724 317.1 653.382 330.038 656.99 331.995C661.822 334.625 684.847 347.134 685.764 350.223L686.1 462.346L684.449 465.711L645.799 486.661V612.547L791.073 530.305L792.174 348.45L877.577 300.34L877.638 300.371Z" fill="#DE754C"/>
<path d="M597.18 855.878L236.089 651.145V550.43L597.18 756.019V855.878Z" fill="#9E2A2B"/>
<path d="M2879.55 491.708L2929.95 651.145H2816.59L2773.75 520.243C2808.74 505.593 2841.03 495.469 2879.55 491.708Z" fill="#BCBCBC"/>
<path d="M3116.38 543.732L3116.47 645.364C3116.84 647.077 3115.25 651.145 3113.87 651.145H3007.21V500.088C3049.81 509.141 3079.38 521.68 3116.38 543.732Z" fill="#BCBCBC"/>
<path d="M2489.93 644.416C2490.39 643.376 2490.21 641.847 2491.62 641.052C2491.43 642.459 2491.62 643.866 2489.93 644.416Z" fill="#BCBCBC"/>
</g>
<defs>
<clipPath id="clip0_494_72">
<rect width="4161" height="856" fill="white"/>
</clipPath>
</defs>
</svg>
