<svg width="975" height="845" viewBox="0 0 975 845" fill="none" xmlns="http://www.w3.org/2000/svg">
<path d="M766.797 315.014L956.318 203.288L604.61 0.271667H603.378L251.62 203.904L562.055 386.332L563.108 387.513C550.711 424.378 589.544 457.752 624.296 439.294C650.528 425.354 654.686 388.617 632.304 369.029C616.417 355.14 592.906 354.678 576.557 368.13C574.067 370.184 571.809 373.059 569.242 374.805L455.155 306.491L603.635 217.998L766.771 315.014H766.797ZM603.789 373.855C639.26 373.855 639.183 428.896 603.789 428.896C568.395 428.896 568.395 373.855 603.789 373.855Z" fill="#D9D9D6"/>
<path d="M531.307 439.576V457.136L571.347 479.625V605.317L429.36 523.987L428.436 343.151L84.7365 148.067C96.6714 114.514 66.8727 81.1139 32.069 90.8951C15.7451 95.4904 2.01354 110.534 0.935549 127.812C0.755884 130.764 0.730218 134.718 0.935549 137.67C1.50021 145.834 5.27318 154.229 10.4835 160.467C28.1163 181.621 60.4817 181.108 77.9349 160.133L78.6022 160.082L330.518 303.718V318.814L232.575 263.978V310.804L130.91 253.812C130.448 253.529 130.371 253.221 130.397 252.708C130.525 250.525 132.476 246.341 132.758 243.337C134.709 221.439 121.902 201.132 100.239 195.792C67.0267 187.577 38.2289 218.435 48.0592 251.065C57.9151 283.694 102.292 292.243 122.98 265.287H123.75L330.518 383.226V398.321L232.575 343.485V390.311L171.258 355.833C186.376 313.397 135.12 277.969 101.086 308.391C59.8914 345.205 114.304 410.336 158.271 374.189C159.606 373.085 163.019 368.798 163.61 368.438C164.251 368.028 164.816 368.079 165.483 368.413L326.54 459.96L330.544 462.733V477.828L232.601 422.992V510.791L587.414 713.808V471.359L531.358 439.628L531.307 439.576ZM44.1835 160.364C8.71249 160.364 8.78948 105.323 44.1835 105.323C79.5776 105.323 79.5776 160.364 44.1835 160.364ZM89.5105 265.133C54.0394 265.133 54.1164 210.092 89.5105 210.092C124.905 210.092 124.905 265.133 89.5105 265.133ZM130.32 368.156C94.8491 368.156 94.9261 313.115 130.32 313.115C165.714 313.115 165.714 368.156 130.32 368.156Z" fill="#9E2A2B"/>
<path d="M620.01 844.377V744.871L889.508 589.297L889.893 280.382L974.823 231.938V640.128L620.01 844.377Z" fill="#DE754C"/>
<path d="M863.944 295.4V575.126L620.01 714.372V471.307L660.075 447.92L660.049 353.754L620.626 330.828V313.268L674.423 343.562L676.04 345.641L675.937 457.008L636.026 480.549V604.7L778.628 523.987L778.911 343.254L863.944 295.4Z" fill="#DE754C"/>
<path d="M587.363 844.377L232.55 640.128V541.855L587.363 744.871V844.377Z" fill="#9E2A2B"/>
</svg>
