<svg width="17" height="16" viewBox="0 0 17 16" fill="none" xmlns="http://www.w3.org/2000/svg">
<path d="M12.9791 2.26712V3.14527H4.28506L2.68301 4.76445V7.1104L1.27148 12.3784L4.14983 13.1499L4.51746 11.7774L3.38594 11.4735L4.20411 9.6753H8.74349V9.67816H14.0629L14.063 3.14521H13.5487V2.26709H12.9791L12.9791 2.26712ZM14.6326 3.97295V5.58265H15.6736V3.97292H14.6326L14.6326 3.97295ZM9.71313 4.21873H13.0295V5.22361H9.71316V4.21873H9.71313ZM5.25657 7.36367H6.03189L7.07386 8.62381L7.26055 7.3637H8.74352V9.10577H4.46413L5.25657 7.36373V7.36367ZM9.63697 10.243V11.4298H13.1163V10.243H12.5962V10.9602H12.0266V10.243H10.738V10.9602H10.1684V10.243H9.63697Z" fill="url(#paint0_linear_2099_107)"/>
<defs>
<linearGradient id="paint0_linear_2099_107" x1="8.47255" y1="2.26709" x2="8.47255" y2="13.1499" gradientUnits="userSpaceOnUse">
<stop stop-color="white"/>
<stop offset="1" stop-color="#999999"/>
</linearGradient>
</defs>
</svg>
