<svg width="621" height="335" viewBox="0 0 621 335" fill="none" xmlns="http://www.w3.org/2000/svg">
<path d="M609.742 3.43189L604.933 1M609.742 3.43189H595.492M609.742 3.43189L614.71 5.94409M609.742 3.43189H619.833M604.933 1L606.683 1.00095L608.415 1.00621L610.11 1.02102L611.752 1.05018L613.324 1.0975L614.807 1.16872L616.184 1.26766L617.463 1.39383L618.56 1.5683L619.559 1.77048L619.833 1.8413V3.43189M604.933 1H590.913M590.913 1H576.892M590.913 1L595.492 3.43189M576.892 1H562.871M576.892 1L581.242 3.43189M562.871 1H548.851M562.871 1L566.993 3.43189M548.851 1H534.83M548.851 1L552.744 3.43189M534.83 1H520.809M534.83 1L538.494 3.43189M520.809 1H506.789M520.809 1L524.244 3.43189M506.789 1H492.768M506.789 1L509.995 3.43189M492.768 1H478.747M492.768 1L495.745 3.43189M478.747 1H464.727M478.747 1L481.495 3.43189M464.727 1H450.706M464.727 1L467.246 3.43189M450.706 1H436.686M450.706 1L452.996 3.43189M436.686 1H422.665M436.686 1L437.195 1.6008L437.966 2.51038L438.746 3.43189M422.665 1H408.644M422.665 1L423.117 1.6008L424.497 3.43189M408.644 1H394.624M408.644 1L410.247 3.43189M394.624 1H380.603M394.624 1L395.134 1.90287L395.65 2.81627L395.824 3.1236L395.998 3.43189M380.603 1H366.583M380.603 1L381.028 1.90287L381.171 2.2059L381.314 2.51038L381.748 3.43189M366.583 1H352.562M366.583 1L367.499 3.43189M352.562 1L352.647 1.29968L352.731 1.6008L353.162 3.1236L353.249 3.43189M352.562 1H338.541M338.541 1H324.521M338.541 1L338.999 3.43189M324.521 1H310.5M324.521 1L324.606 1.90287L324.75 3.43189M310.5 1H296.479M310.5 1V3.43189M296.479 1H282.459M296.479 1L296.394 1.90287L296.25 3.43189M282.459 1H268.438M282.459 1L282.001 3.43189M268.438 1L268.353 1.29968L268.269 1.6008L267.838 3.1236L267.751 3.43189M268.438 1H254.418M254.418 1H240.397M254.418 1L253.618 3.1236L253.501 3.43189M240.397 1H226.376M240.397 1L239.972 1.90287L239.829 2.2059L239.542 2.81627L239.397 3.1236L239.252 3.43189M226.376 1H212.356M226.376 1L225.866 1.90287L225.35 2.81627L225.177 3.1236L225.002 3.43189M212.356 1H198.335M212.356 1L210.753 3.43189M198.335 1H184.314M198.335 1L197.883 1.6008L196.503 3.43189M184.314 1H170.294M184.314 1L182.254 3.43189M170.294 1H156.273M170.294 1L168.004 3.43189M156.273 1H142.252M156.273 1L153.754 3.43189M142.252 1H128.232M142.252 1L139.505 3.43189M128.232 1H114.211M128.232 1L125.255 3.43189M114.211 1H100.191M114.211 1L111.005 3.43189M100.191 1H86.1698M100.191 1L96.7558 3.43189M86.1698 1H72.1493M86.1698 1L82.5061 3.43189M72.1493 1H58.1287M72.1493 1L68.2565 3.43189M58.1287 1H44.1079M58.1287 1L54.0069 3.43189M44.1079 1H30.0873M44.1079 1L39.7575 3.43189M30.0873 1H16.0668M30.0873 1L25.5079 3.43189M16.0668 1L14.3171 1.00095L12.5855 1.00621L10.89 1.02102L9.2476 1.05018L7.67645 1.0975L6.19326 1.16872L4.81576 1.26766L3.53718 1.39383L2.44001 1.5683L1.44112 1.77048L1.16659 1.84131V3.43189M16.0668 1L11.2583 3.43189M39.7575 3.43189H54.0069M39.7575 3.43189H25.5079M39.7575 3.43189L35.2622 5.94409M54.0069 3.43189L49.7484 5.94409M54.0069 3.43189H68.2565M96.7558 3.43189H111.005M96.7558 3.43189H82.5061M96.7558 3.43189L95.8797 4.05229L93.2071 5.94409M111.005 3.43189L107.693 5.94409M111.005 3.43189H125.255M153.754 3.43189H168.004M153.754 3.43189H139.505M153.754 3.43189L153.112 4.05229L152.788 4.36393L151.152 5.94409M168.004 3.43189L167.712 3.74113L167.42 4.05229L165.638 5.94409M168.004 3.43189H182.254M210.753 3.43189L210.549 3.74113L209.097 5.94409M210.753 3.43189H225.002M210.753 3.43189H196.503M225.002 3.43189L224.652 4.05229L224.475 4.36393L224.298 4.67748L223.583 5.94409M225.002 3.43189H239.252M267.751 3.43189H282.001M267.751 3.43189H253.501M267.751 3.43189L267.042 5.94409M282.001 3.43189L281.942 3.74113L281.884 4.05229L281.825 4.36393L281.647 5.30792L281.528 5.94409M282.001 3.43189H296.25M324.75 3.43189H338.999M324.75 3.43189H310.5M324.75 3.43189L324.986 5.94409M338.999 3.43189L339.058 3.74113L339.116 4.05229L339.175 4.36393L339.472 5.94409M338.999 3.43189H353.249M381.748 3.43189H395.998M381.748 3.43189H367.499M381.748 3.43189L382.04 4.05229L382.632 5.30792L382.781 5.62529L382.931 5.94409M395.998 3.43189L396.348 4.05229L396.525 4.36393L396.702 4.67748L397.417 5.94409M395.998 3.43189H410.247M438.746 3.43189H452.996M438.746 3.43189H424.497M438.746 3.43189L439.272 4.05229L439.537 4.36393L440.876 5.94409M452.996 3.43189L453.288 3.74113L453.58 4.05229L455.362 5.94409M452.996 3.43189H467.246M495.745 3.43189H509.995M495.745 3.43189H481.495M495.745 3.43189L496.504 4.05229L496.887 4.36393L498.821 5.94409M509.995 3.43189L513.307 5.94409M509.995 3.43189H524.244M552.744 3.43189H566.993M552.744 3.43189H538.494M552.744 3.43189L556.765 5.94409M566.993 3.43189L571.252 5.94409M566.993 3.43189H581.242M1.11665 26.1736H1.16659M15.4591 26.1736L20.8995 22.964M15.4591 26.1736L9.8102 29.5059M15.4591 26.1736H31.8502M15.4591 26.1736H1.16659M20.8995 22.964H4.8106M20.8995 22.964L26.143 19.8706M20.8995 22.964H36.9884M4.8106 22.964L10.3454 19.8706M4.8106 22.964H1.16659M4.8106 22.964L1.16659 25.0002M20.8344 14.0079H36.08M20.8344 14.0079L25.8089 11.2275M20.8344 14.0079H5.58909M20.8344 14.0079L15.683 16.8871M36.08 14.0079L40.7928 11.2275M36.08 14.0079L31.2 16.8871M36.08 14.0079H51.3257M25.8089 11.2275H40.7928M25.8089 11.2275L30.6155 8.54135M25.8089 11.2275H10.8252M40.7928 11.2275H55.7765M40.7928 11.2275L45.3462 8.54135M1.00967 76.8332H1.16659M14.2356 76.8332L21.251 71.512M14.2356 76.8332L6.87154 82.4193M14.2356 76.8332H35.3976M14.2356 76.8332H1.16659M21.251 71.512L27.942 66.437M21.251 71.512H41.9116M21.251 71.512H1.16659M7.75926 66.437H27.942M7.75926 66.437L14.6039 61.5914M7.75926 66.437H1.16659M7.75926 66.437L1.16659 71.1042M21.1457 56.9599H40.4358M21.1457 56.9599L27.4045 52.5291M21.1457 56.9599H1.8555M21.1457 56.9599L14.6039 61.5914M40.4358 56.9599L46.2777 52.5291M40.4358 56.9599L34.33 61.5914M40.4358 56.9599H59.7263M27.4045 52.5291H46.2777M27.4045 52.5291H8.53162M27.4045 52.5291L33.3985 48.2857M46.2777 52.5291L51.8718 48.2857M46.2777 52.5291H65.1506M44.6557 40.3161H62.3785M44.6557 40.3161L49.9482 36.5693M44.6557 40.3161H26.9328M44.6557 40.3161L39.1437 44.2182M62.3785 40.3161L67.3182 36.5693M62.3785 40.3161L57.2342 44.2182M62.3785 40.3161H80.1017M49.9482 36.5693H67.3182M49.9482 36.5693H32.5781M49.9482 36.5693L55.0341 32.9688M67.3182 36.5693L72.0652 32.9688M67.3182 36.5693H84.6886M64.6325 26.1736H81.0236M64.6325 26.1736L69.1661 22.964M64.6325 26.1736H48.2413M64.6325 26.1736L59.9251 29.5059M81.0236 26.1736L85.255 22.964M81.0236 26.1736L76.6301 29.5059M81.0236 26.1736H97.4147M69.1661 22.964H85.255M69.1661 22.964H53.0773M69.1661 22.964L73.5358 19.8706M85.255 22.964L89.3334 19.8706M85.255 22.964H101.344M81.8166 14.0079H97.0622M81.8166 14.0079L85.7438 11.2275M81.8166 14.0079H66.5713M81.8166 14.0079L77.7498 16.8871M97.0622 14.0079L100.727 11.2275M97.0622 14.0079L93.2664 16.8871M97.0622 14.0079H112.308M85.7438 11.2275H100.727M85.7438 11.2275L89.5386 8.54135M85.7438 11.2275H70.7602M100.727 11.2275H115.711M100.727 11.2275L104.269 8.54135M12.0084 169.088L21.8819 158.602M12.0084 169.088L1.435 180.315M12.0084 169.088H41.8575M12.0084 169.088H1.16659M21.8819 158.602L31.1236 148.789M21.8819 158.602H50.7437M21.8819 158.602H1.16659M21.6815 130.933H47.9378M21.6815 130.933L30.1189 122.788M21.6815 130.933L12.7205 139.584M21.6815 130.933H1.16659M47.9378 130.933L55.608 122.788M47.9378 130.933L39.7914 139.584M47.9378 130.933H74.1941M30.1189 122.788H55.608M30.1189 122.788H4.62984M30.1189 122.788L38.0775 115.105M55.608 122.788L62.8432 115.105M55.608 122.788H81.0974M52.7115 100.977H76.1471M52.7115 100.977L59.4547 94.4674M52.7115 100.977H29.2763M52.7115 100.977L45.5965 107.846M76.1471 100.977L82.277 94.4674M76.1471 100.977L69.6785 107.846M76.1471 100.977H99.5823M59.4547 94.4674H82.277M59.4547 94.4674H36.6323M59.4547 94.4674L65.8537 88.2897M82.277 94.4674L88.0944 88.2897M82.277 94.4674H105.099M77.7208 76.8332H98.8828M77.7208 76.8332L83.2331 71.512M77.7208 76.8332H56.5592M77.7208 76.8332L71.935 82.4193M98.8828 76.8332L103.894 71.512M98.8828 76.8332L93.6225 82.4193M98.8828 76.8332H120.044M83.2331 71.512H103.894M83.2331 71.512H62.5725M83.2331 71.512L88.4901 66.437M103.894 71.512L108.673 66.437M103.894 71.512H124.554M98.307 56.9599H117.597M98.307 56.9599L102.897 52.5291M98.307 56.9599H79.0165M98.307 56.9599L93.5094 61.5914M117.597 56.9599L121.77 52.5291M117.597 56.9599L113.236 61.5914M117.597 56.9599H136.887M102.897 52.5291H121.77M102.897 52.5291H84.0238M102.897 52.5291L107.292 48.2857M121.77 52.5291L125.766 48.2857M121.77 52.5291H140.643M115.547 40.3161H133.27M115.547 40.3161L119.429 36.5693M115.547 40.3161H97.8246M115.547 40.3161L111.506 44.2182M133.27 40.3161L133.72 39.8396L136.799 36.5693M133.27 40.3161L129.596 44.2182M133.27 40.3161H150.994M119.429 36.5693H136.799M119.429 36.5693H102.059M119.429 36.5693L123.158 32.9688M136.799 36.5693L140.189 32.9688M136.799 36.5693H154.169M130.197 26.1736H146.588M130.197 26.1736L133.522 22.964M130.197 26.1736H113.806M130.197 26.1736L126.745 29.5059M146.588 26.1736L149.611 22.964M146.588 26.1736L145.426 27.4086L143.45 29.5059M146.588 26.1736H162.98M133.522 22.964H149.611M133.522 22.964H117.433M133.522 22.964L136.726 19.8706M149.611 22.964L152.524 19.8706M149.611 22.964H165.7M142.799 14.0079H158.044M142.799 14.0079L145.679 11.2275M142.799 14.0079H127.553M142.799 14.0079L139.817 16.8871M158.044 14.0079L160.017 11.9139L160.34 11.5698L160.663 11.2275M158.044 14.0079L155.333 16.8871M158.044 14.0079H173.29M145.679 11.2275H160.663M145.679 11.2275L148.462 8.54135M145.679 11.2275H130.695M160.663 11.2275H175.646M160.663 11.2275L163.192 8.54135M22.8232 288.528H63.92M22.8232 288.528L35.7636 268.897M22.8232 288.528L8.60348 310.1M22.8232 288.528L1.16659 288.528M63.92 288.528L75.0119 268.897M63.92 288.528L51.7317 310.1M63.92 288.528H105.017M35.7636 268.897H75.0119M35.7636 268.897L47.5901 250.956M35.7636 268.897H1.16659M75.0119 268.897L85.1487 250.956M75.0119 268.897H114.26M68.4305 219.34H103.012M68.4305 219.34L77.659 205.34M68.4305 219.34H33.8493M68.4305 219.34L58.4403 234.495M103.012 219.34L110.922 205.34M103.012 219.34L94.449 234.495M103.012 219.34H137.593M77.659 205.34H110.922M77.659 205.34H44.3959M77.659 205.34L86.2098 192.368M110.922 205.34L118.251 192.368M110.922 205.34H144.185M101.556 169.088H131.405M101.556 169.088L108.468 158.602M101.556 169.088H71.7065M101.556 169.088L94.1545 180.315M131.405 169.088L137.329 158.602M131.405 169.088L125.061 180.315M131.405 169.088H161.254M108.468 158.602H137.329M108.468 158.602H79.6055M108.468 158.602L114.937 148.789M137.329 158.602L142.874 148.789M137.329 158.602H166.191M126.706 130.933H152.963M126.706 130.933L132.076 122.788M126.706 130.933H100.45M126.706 130.933L121.004 139.584M152.963 130.933L157.565 122.788M152.963 130.933L148.075 139.584M152.963 130.933H179.219M132.076 122.788H157.565M132.076 122.788H106.586M132.076 122.788L137.14 115.105M157.565 122.788L161.906 115.105M157.565 122.788H183.054M146.453 100.977H169.888M146.453 100.977L150.744 94.4674M146.453 100.977H123.018M146.453 100.977L141.925 107.846M169.888 100.977L173.566 94.4674M169.888 100.977L166.007 107.846M169.888 100.977H193.324M150.744 94.4674H173.566M150.744 94.4674H127.921M150.744 94.4674L154.816 88.2897M173.566 94.4674L177.056 88.2897M173.566 94.4674H196.389M162.368 76.8332H183.53M162.368 76.8332L165.876 71.512M162.368 76.8332H141.206M162.368 76.8332L158.686 82.4193M183.53 76.8332L186.536 71.512M183.53 76.8332L180.373 82.4193M183.53 76.8332H204.691M165.876 71.512H186.536M165.876 71.512H145.215M165.876 71.512L169.221 66.437M186.536 71.512L189.404 66.437M186.536 71.512H207.197M175.468 56.9599H194.758M175.468 56.9599L178.389 52.5291M175.468 56.9599H156.178M175.468 56.9599L172.415 61.5914M194.758 56.9599L197.262 52.5291M194.758 56.9599L192.142 61.5914M194.758 56.9599H214.049M178.389 52.5291H197.262M178.389 52.5291H159.516M178.389 52.5291L181.186 48.2857M197.262 52.5291L199.659 48.2857M197.262 52.5291H216.135M186.439 40.3161H204.162M186.439 40.3161L188.909 36.5693M186.439 40.3161H168.716M186.439 40.3161L183.867 44.2182M204.162 40.3161L203.891 40.795L201.957 44.2182M204.162 40.3161L206.279 36.5693M204.162 40.3161H221.885M188.909 36.5693H206.279M188.909 36.5693H171.539M188.909 36.5693L191.283 32.9688M206.279 36.5693L208.314 32.9688M206.279 36.5693H223.65M195.762 26.1736H212.153M195.762 26.1736L197.878 22.964M195.762 26.1736H179.371M195.762 26.1736L193.565 29.5059M212.153 26.1736L213.966 22.964M212.153 26.1736L211.455 27.4086L210.985 28.2417L210.27 29.5059M212.153 26.1736H228.544M197.878 22.964H213.966M197.878 22.964H181.789M197.878 22.964L199.917 19.8706M213.966 22.964L214.63 21.7906L215.066 21.0172L215.714 19.8706M213.966 22.964H230.055M203.781 14.0079H219.027M203.781 14.0079L205.162 11.9139L205.614 11.2275M203.781 14.0079H188.536M203.781 14.0079L202.124 16.5215L201.883 16.8871M219.027 14.0079L220.21 11.9139L220.404 11.5698L220.598 11.2275M219.027 14.0079L218.22 15.4346L217.4 16.8871M219.027 14.0079H234.272M205.614 11.2275H220.598M205.614 11.2275L207.385 8.54135M205.614 11.2275H190.63M220.598 11.2275H235.581M220.598 11.2275L222.115 8.54135M187.21 288.528H228.307M187.21 288.528L192.756 268.897M187.21 288.528H146.113M187.21 288.528L181.116 310.1M228.307 288.528L232.004 268.897M228.307 288.528L224.244 310.1M228.307 288.528H269.403M192.756 268.897H232.004M192.756 268.897H153.508M192.756 268.897L197.824 250.956M232.004 268.897L235.383 250.956M232.004 268.897H271.252M206.756 219.34H241.337M206.756 219.34L210.711 205.34M206.756 219.34H172.174M206.756 219.34L202.474 234.495M241.337 219.34L243.974 205.34M241.337 219.34L238.483 234.495M241.337 219.34H275.919M210.711 205.34H243.974M210.711 205.34H177.448M210.711 205.34L214.376 192.368M243.974 205.34L246.417 192.368M243.974 205.34H277.237M220.953 169.088H250.802M220.953 169.088L223.915 158.602M220.953 169.088H191.103M220.953 169.088L217.781 180.315M250.802 169.088L252.776 158.602M250.802 169.088L248.687 180.315M250.802 169.088H280.651M223.915 158.602H252.776M223.915 158.602H195.053M223.915 158.602L226.687 148.789M252.776 158.602L254.625 148.789M252.776 158.602H281.638M231.731 130.933H257.987M231.731 130.933L234.032 122.788M231.731 130.933H205.475M231.731 130.933L229.287 139.584M257.987 130.933L259.522 122.788M257.987 130.933L256.358 139.584M257.987 130.933H284.244M234.032 122.788H259.522M234.032 122.788H208.543M234.032 122.788L236.203 115.105M259.522 122.788L260.969 115.105M259.522 122.788H285.011M240.194 100.977H263.63M240.194 100.977L242.033 94.4674M240.194 100.977H216.759M240.194 100.977L238.254 107.846M263.63 100.977L264.855 94.4674M263.63 100.977L262.336 107.846M263.63 100.977H287.065M242.033 94.4674H264.855M242.033 94.4674H219.211M242.033 94.4674L243.778 88.2897M264.855 94.4674L266.019 88.2897M264.855 94.4674H287.678M247.015 76.8332H268.176M247.015 76.8332L248.518 71.512M247.015 76.8332H225.853M247.015 76.8332L245.437 82.4193M268.176 76.8332L269.179 71.512M268.176 76.8332L267.124 82.4193M268.176 76.8332H289.338M248.518 71.512H269.179M248.518 71.512H227.857M248.518 71.512L249.064 69.5811L249.952 66.437M269.179 71.512L270.135 66.437M269.179 71.512H289.839M252.629 56.9599H271.919M252.629 56.9599L253.881 52.5291M252.629 56.9599H233.339M252.629 56.9599L251.654 60.4142L251.321 61.5914M271.919 56.9599L272.237 55.2755L272.754 52.5291M271.919 56.9599L271.047 61.5914M271.919 56.9599H291.21M253.881 52.5291L254.033 51.9885L255.08 48.2857M253.881 52.5291H272.754M253.881 52.5291H235.008M272.754 52.5291L273.058 50.9165L273.158 50.3845L273.258 49.8559L273.553 48.2857M272.754 52.5291H291.627M257.331 40.3161H275.054M257.331 40.3161L257.866 38.4238L257.998 37.9569L258.129 37.4918L258.26 37.0296L258.39 36.5693M257.331 40.3161H239.608M257.331 40.3161L256.229 44.2182M275.054 40.3161L275.586 37.4918L275.673 37.0296L275.76 36.5693M275.054 40.3161L274.319 44.2182M275.054 40.3161H292.777M258.39 36.5693H275.76M258.39 36.5693H241.02M258.39 36.5693L259.03 34.3023L259.156 33.8554L259.407 32.9688M275.76 36.5693L276.187 34.3023L276.271 33.8554L276.354 33.4109L276.438 32.9688M275.76 36.5693H293.13M261.327 26.1736H277.718M261.327 26.1736L262.233 22.964M261.327 26.1736H244.935M261.327 26.1736L261.094 26.9947L260.742 28.2417L260.385 29.5059M277.718 26.1736L277.64 26.5832L277.17 29.0825L277.09 29.5059M277.718 26.1736L278.322 22.964M277.718 26.1736H294.109M262.233 22.964H278.322M262.233 22.964H246.144M262.233 22.964L263.107 19.8706M278.322 22.964L278.543 21.7906L278.616 21.403L278.689 21.0172L278.905 19.8706M278.322 22.964H294.411M264.763 14.0079H280.009M264.763 14.0079L265.355 11.9139L265.549 11.2275M264.763 14.0079H249.518M264.763 14.0079L264.462 15.0756L264.36 15.4346L264.258 15.7955L263.95 16.8871M280.009 14.0079L280.075 13.6551L280.207 12.9539L280.338 12.259L280.532 11.2275M280.009 14.0079L279.74 15.4346L279.672 15.7955L279.535 16.5215L279.467 16.8871M280.009 14.0079H295.254M265.549 11.2275H280.532M265.549 11.2275L266.214 8.87212L266.308 8.54135M265.549 11.2275H250.565M280.532 11.2275L280.597 10.8867L280.661 10.5474L280.724 10.2095L280.788 9.87297L280.976 8.87212L281.039 8.54135M280.532 11.2275H295.516M351.597 288.528H392.693M351.597 288.528L349.748 268.897M351.597 288.528H310.5M351.597 288.528L353.628 310.1M392.693 288.528L388.996 268.897M392.693 288.528L396.756 310.1M392.693 288.528H433.79M349.748 268.897H388.996M349.748 268.897H310.5M349.748 268.897L348.059 250.956M388.996 268.897L385.617 250.956M388.996 268.897H428.244M345.081 219.34H379.663M345.081 219.34L343.763 205.34M345.081 219.34H310.5M345.081 219.34L346.509 234.495M379.663 219.34L377.026 205.34M379.663 219.34L382.517 234.495M379.663 219.34H414.244M343.763 205.34H377.026M343.763 205.34H310.5M343.763 205.34L342.541 192.368M377.026 205.34L374.583 192.368M377.026 205.34H410.289M340.349 169.088H370.198M340.349 169.088L339.362 158.602M340.349 169.088H310.5M340.349 169.088L341.407 180.315M370.198 169.088L368.224 158.602M370.198 169.088L372.313 180.315M370.198 169.088H400.048M339.362 158.602H368.224M339.362 158.602H310.5M339.362 158.602L338.438 148.789M368.224 158.602L366.375 148.789M368.224 158.602H397.085M336.756 130.933H363.013M336.756 130.933L335.989 122.788M336.756 130.933H310.5M336.756 130.933L337.571 139.584M363.013 130.933L361.478 122.788M363.013 130.933L364.642 139.584M363.013 130.933H389.269M335.989 122.788H361.478M335.989 122.788H310.5M335.989 122.788L335.266 115.105M361.478 122.788L360.031 115.105M361.478 122.788H386.968M333.935 100.977H357.37M333.935 100.977L333.322 94.4674M333.935 100.977H310.5M333.935 100.977L334.582 107.846M357.37 100.977L356.145 94.4674M357.37 100.977L358.664 107.846M357.37 100.977H380.806M333.322 94.4674H356.145M333.322 94.4674H310.5M333.322 94.4674L332.74 88.2897M356.145 94.4674L354.981 88.2897M356.145 94.4674H378.967M331.662 76.8332H352.824M331.662 76.8332L331.161 71.512M331.662 76.8332H310.5M331.662 76.8332L332.188 82.4193M352.824 76.8332L351.821 71.512M352.824 76.8332L353.876 82.4193M352.824 76.8332H373.985M331.161 71.512H351.821M331.161 71.512H310.5M331.161 71.512L330.683 66.437M351.821 71.512L350.865 66.437M351.821 71.512H372.482M329.79 56.9599H349.081M329.79 56.9599L329.373 52.5291M329.79 56.9599H310.5M329.79 56.9599L330.226 61.5914M349.081 56.9599L348.348 53.0726L348.246 52.5291M349.081 56.9599L349.953 61.5914M349.081 56.9599H368.371M329.373 52.5291L329.322 51.9885L328.973 48.2857M329.373 52.5291H348.246M329.373 52.5291H310.5M348.246 52.5291L347.942 50.9165L347.842 50.3845L347.742 49.8559L347.447 48.2857M348.246 52.5291H367.119M328.223 40.3161H345.946M328.223 40.3161L327.87 36.5693M328.223 40.3161H310.5M328.223 40.3161L328.359 41.7605L328.405 42.2471L328.451 42.7361L328.544 43.7216L328.591 44.2182M345.946 40.3161L345.414 37.4918L345.24 36.5693M345.946 40.3161L346.681 44.2182M345.946 40.3161H363.669M327.87 36.5693H345.24M327.87 36.5693H310.5M327.87 36.5693L327.531 32.9688M345.24 36.5693L344.813 34.3023L344.729 33.8554L344.646 33.4109L344.562 32.9688M345.24 36.5693H362.61M326.891 26.1736H343.282M326.891 26.1736L326.589 22.964M326.891 26.1736H310.5M326.891 26.1736L327.205 29.5059M343.282 26.1736L343.36 26.5832L343.83 29.0825L343.91 29.5059M343.282 26.1736L342.678 22.964M343.282 26.1736H359.673M326.589 22.964H342.678M326.589 22.964H310.5M326.589 22.964L326.298 19.8706M342.678 22.964L342.457 21.7906L342.384 21.403L342.311 21.0172L342.095 19.8706M342.678 22.964H358.767M325.746 14.0079H340.991M325.746 14.0079L325.484 11.2275M325.746 14.0079H310.5M325.746 14.0079L326.017 16.8871M340.991 14.0079L340.925 13.6551L340.792 12.9539L340.727 12.6055L340.597 11.9139L340.532 11.5698L340.467 11.2275M340.991 14.0079L341.26 15.4346L341.328 15.7955L341.465 16.5215L341.533 16.8871M340.991 14.0079H356.237M325.484 11.2275L325.452 10.8867L325.42 10.5474L325.388 10.2095L325.231 8.54135M325.484 11.2275H340.467M325.484 11.2275H310.5M340.467 11.2275H355.451M340.467 11.2275L340.339 10.5474L340.276 10.2095L340.212 9.87297L340.024 8.87212L339.961 8.54135M515.983 288.528H557.08M515.983 288.528L506.74 268.897M515.983 288.528H474.887M515.983 288.528L526.141 310.1M557.08 288.528L545.988 268.897M557.08 288.528L569.268 310.1M557.08 288.528H598.177M506.74 268.897H545.988M506.74 268.897H467.492M506.74 268.897L498.293 250.956M545.988 268.897L535.851 250.956M545.988 268.897H585.236M483.407 219.34H517.988M483.407 219.34L476.815 205.34M483.407 219.34H448.826M483.407 219.34L490.543 234.495M517.988 219.34L510.078 205.34M517.988 219.34L526.551 234.495M517.988 219.34H552.57M476.815 205.34H510.078M476.815 205.34H443.552M476.815 205.34L470.707 192.368M510.078 205.34L502.749 192.368M510.078 205.34H543.341M459.746 169.088H489.595M459.746 169.088L454.809 158.602M459.746 169.088H429.897M459.746 169.088L465.033 180.315M489.595 169.088L483.671 158.602M489.595 169.088L495.939 180.315M489.595 169.088H519.444M454.809 158.602H483.671M454.809 158.602H425.947M454.809 158.602L450.188 148.789M483.671 158.602L478.126 148.789M483.671 158.602H512.532M441.781 130.933H468.037M441.781 130.933L437.946 122.788M441.781 130.933H415.525M441.781 130.933L445.854 139.584M468.037 130.933L463.435 122.788M468.037 130.933L472.925 139.584M468.037 130.933H494.294M437.946 122.788H463.435M437.946 122.788H412.457M437.946 122.788L434.328 115.105M463.435 122.788L459.094 115.105M463.435 122.788H488.924M427.676 100.977H451.112M427.676 100.977L424.612 94.4674M427.676 100.977H404.241M427.676 100.977L430.911 107.846M451.112 100.977L447.434 94.4674M451.112 100.977L454.993 107.846M451.112 100.977H474.547M424.612 94.4674H447.434M424.612 94.4674H401.789M424.612 94.4674L421.703 88.2897M447.434 94.4674L443.944 88.2897M447.434 94.4674H470.256M416.309 76.8332H437.47M416.309 76.8332L413.803 71.512M416.309 76.8332H395.147M416.309 76.8332L418.939 82.4193M437.47 76.8332L434.464 71.512M437.47 76.8332L440.627 82.4193M437.47 76.8332H458.632M413.803 71.512H434.464M413.803 71.512H393.143M413.803 71.512L411.414 66.437M434.464 71.512L431.596 66.437M434.464 71.512H455.124M406.951 56.9599L407.219 57.5277L407.488 58.0984L409.132 61.5914M406.951 56.9599H426.242M406.951 56.9599L404.865 52.5291M406.951 56.9599H387.661M426.242 56.9599L423.738 52.5291M426.242 56.9599L428.858 61.5914M426.242 56.9599H445.532M404.865 52.5291H423.738M404.865 52.5291H385.992M404.865 52.5291L402.867 48.2857M423.738 52.5291L421.341 48.2857M423.738 52.5291H442.611M399.115 40.3161H416.838M399.115 40.3161L397.351 36.5693M399.115 40.3161H381.392M399.115 40.3161L400.952 44.2182M416.838 40.3161L415.505 37.9569L414.721 36.5693M416.838 40.3161L419.043 44.2182M416.838 40.3161H434.561M397.351 36.5693H414.721M397.351 36.5693H379.98M397.351 36.5693L395.864 33.4109L395.655 32.9688M414.721 36.5693L412.686 32.9688M414.721 36.5693H432.091M392.456 26.1736H408.847M392.456 26.1736L392.073 25.3596L390.945 22.964M392.456 26.1736H376.065M392.456 26.1736L392.843 26.9947L393.627 28.6609L394.025 29.5059M408.847 26.1736L407.034 22.964M408.847 26.1736L409.545 27.4086L410.015 28.2417L410.73 29.5059M408.847 26.1736H425.238M390.945 22.964H407.034M390.945 22.964H374.856M390.945 22.964L389.847 20.633L389.488 19.8706M407.034 22.964L406.371 21.7906L405.934 21.0172L405.286 19.8706M407.034 22.964H423.122M386.728 14.0079H401.973M386.728 14.0079L385.904 12.259L385.419 11.2275M386.728 14.0079H371.482M386.728 14.0079L388.083 16.8871M401.973 14.0079L400.79 11.9139L400.596 11.5698L400.402 11.2275M401.973 14.0079L402.78 15.4346L403.6 16.8871M401.973 14.0079H417.219M385.419 11.2275H400.402M385.419 11.2275L384.781 9.87297L384.466 9.20429L384.31 8.87212L384.154 8.54135M385.419 11.2275H370.435M400.402 11.2275H415.386M400.402 11.2275L398.885 8.54135M609.867 205.34H576.604M609.867 205.34L598.874 192.368M609.867 205.34H619.833M609.867 205.34L619.833 217.1M579.143 169.088H608.992M579.143 169.088L570.256 158.602M579.143 169.088H549.293M579.143 169.088L588.658 180.315M608.992 169.088L599.118 158.602M608.992 169.088L619.565 180.315M608.992 169.088H619.833M570.256 158.602H599.118M570.256 158.602H541.395M570.256 158.602L561.939 148.789M599.118 158.602L589.876 148.789M599.118 158.602H619.833M546.806 130.933H573.062M546.806 130.933L539.903 122.788M546.806 130.933H520.55M546.806 130.933L554.138 139.584M573.062 130.933L565.392 122.788M573.062 130.933L581.209 139.584M573.062 130.933H599.319M539.903 122.788H565.392M539.903 122.788H514.414M539.903 122.788L533.391 115.105M565.392 122.788L558.157 115.105M565.392 122.788H590.881M521.418 100.977H544.853M521.418 100.977L515.901 94.4674M521.418 100.977H497.983M521.418 100.977L527.239 107.846M544.853 100.977L538.723 94.4674M544.853 100.977L551.322 107.846M544.853 100.977H568.288M515.901 94.4674H538.723M515.901 94.4674H493.079M515.901 94.4674L510.665 88.2897M538.723 94.4674L532.906 88.2897M538.723 94.4674H561.545M500.956 76.8332H522.117M500.956 76.8332L496.446 71.512M500.956 76.8332H479.794M500.956 76.8332L505.69 82.4193M522.117 76.8332L517.106 71.512M522.117 76.8332L527.378 82.4193M522.117 76.8332H543.279M496.446 71.512H517.106M496.446 71.512H475.785M496.446 71.512L492.144 66.437M517.106 71.512L512.327 66.437M517.106 71.512H537.767M484.113 56.9599H503.403M484.113 56.9599L480.357 52.5291M484.113 56.9599H464.822M484.113 56.9599L488.038 61.5914M503.403 56.9599L499.23 52.5291M503.403 56.9599L507.764 61.5914M503.403 56.9599H522.693M480.357 52.5291H499.23M480.357 52.5291H461.484M480.357 52.5291L476.761 48.2857M499.23 52.5291L495.234 48.2857M499.23 52.5291H518.103M470.007 40.3161H487.729M470.007 40.3161L466.831 36.5693M470.007 40.3161H452.284M470.007 40.3161L473.314 44.2182M487.729 40.3161L484.201 36.5693M487.729 40.3161L491.404 44.2182M487.729 40.3161H505.453M466.831 36.5693H484.201M466.831 36.5693H449.461M466.831 36.5693L463.78 32.9688M484.201 36.5693L480.811 32.9688M484.201 36.5693H501.571M458.02 26.1736H474.412M458.02 26.1736L455.3 22.964M458.02 26.1736H441.629M458.02 26.1736L458.717 26.9947L459.067 27.4086L460.845 29.5059M474.412 26.1736L471.389 22.964M474.412 26.1736L477.55 29.5059M474.412 26.1736H490.803M455.3 22.964H471.389M455.3 22.964H439.211M455.3 22.964L452.679 19.8706M471.389 22.964L468.476 19.8706M471.389 22.964H487.478M447.71 14.0079H462.956M447.71 14.0079L445.354 11.2275M447.71 14.0079H432.464M447.71 14.0079L450.15 16.8871M462.956 14.0079L460.983 11.9139L460.66 11.5698L460.337 11.2275M462.956 14.0079L465.667 16.8871M462.956 14.0079H478.201M445.354 11.2275H460.337M445.354 11.2275L443.357 8.87212L443.077 8.54135M445.354 11.2275H430.37M460.337 11.2275H475.321M460.337 11.2275L457.808 8.54135M615.159 100.977L607.19 94.4674M615.159 100.977H591.724M615.159 100.977L619.833 104.795M615.159 100.977H619.833M607.19 94.4674H584.368M607.19 94.4674L599.628 88.2897M607.19 94.4674H619.833M585.602 76.8332H606.764M585.602 76.8332L579.088 71.512M585.602 76.8332H564.441M585.602 76.8332L592.441 82.4193M606.764 76.8332L599.749 71.512M606.764 76.8332L614.129 82.4193M606.764 76.8332H619.833M579.088 71.512H599.749M579.088 71.512H558.428M579.088 71.512L572.875 66.437M599.749 71.512L593.058 66.437M599.749 71.512H619.833M561.274 56.9599H580.564M561.274 56.9599L555.849 52.5291M561.274 56.9599H541.984M561.274 56.9599L566.944 61.5914M580.564 56.9599L574.722 52.5291M580.564 56.9599L586.67 61.5914M580.564 56.9599H599.854M555.849 52.5291H574.722M555.849 52.5291H536.976M555.849 52.5291L550.655 48.2857M574.722 52.5291L569.128 48.2857M574.722 52.5291H593.596M540.898 40.3161H558.621M540.898 40.3161L536.311 36.5693M540.898 40.3161H523.175M540.898 40.3161L545.675 44.2182M558.621 40.3161L553.682 36.5693M558.621 40.3161L563.766 44.2182M558.621 40.3161H576.344M536.311 36.5693H553.682M536.311 36.5693H518.941M536.311 36.5693L531.904 32.9688M553.682 36.5693L548.935 32.9688M553.682 36.5693H571.052M523.585 26.1736H539.976M523.585 26.1736L519.656 22.964M523.585 26.1736H507.194M523.585 26.1736L527.665 29.5059M539.976 26.1736L535.745 22.964M539.976 26.1736L544.37 29.5059M539.976 26.1736H556.368M519.656 22.964H535.745M519.656 22.964H503.567M519.656 22.964L515.869 19.8706M535.745 22.964L531.667 19.8706M535.745 22.964H551.834M508.692 14.0079H523.938M508.692 14.0079L505.289 11.2275M508.692 14.0079H493.447M508.692 14.0079L512.217 16.8871M523.938 14.0079L520.272 11.2275M523.938 14.0079L527.734 16.8871M523.938 14.0079H539.183M505.289 11.2275H520.272M505.289 11.2275L502 8.54135M505.289 11.2275H490.305M520.272 11.2275H535.256M520.272 11.2275L516.731 8.54135M611.79 40.3161L605.792 36.5693M611.79 40.3161H594.067M611.79 40.3161L618.037 44.2182M611.79 40.3161H619.833M605.792 36.5693H588.422M605.792 36.5693L600.028 32.9688M605.792 36.5693H619.833M589.15 26.1736H605.541M589.15 26.1736L584.012 22.964M589.15 26.1736H572.759M589.15 26.1736L594.485 29.5059M605.541 26.1736L600.101 22.964M605.541 26.1736L611.19 29.5059M605.541 26.1736H619.833M584.012 22.964H600.101M584.012 22.964H567.923M584.012 22.964L579.059 19.8706M600.101 22.964L594.857 19.8706M600.101 22.964H616.189M569.674 14.0079H584.92M569.674 14.0079L565.224 11.2275M569.674 14.0079H554.429M569.674 14.0079L574.283 16.8871M584.92 14.0079L580.207 11.2275M584.92 14.0079L589.8 16.8871M584.92 14.0079H600.166M565.224 11.2275H580.207M565.224 11.2275L560.923 8.54135M565.224 11.2275H550.24M580.207 11.2275H595.191M580.207 11.2275L575.654 8.54135M589.8 16.8871L594.857 19.8706M589.8 16.8871H605.317M589.8 16.8871H574.283M600.166 14.0079L595.191 11.2275M600.166 14.0079L605.317 16.8871M600.166 14.0079H615.411M595.191 11.2275H610.175M595.191 11.2275L590.385 8.54135M575.654 8.54135H560.923M575.654 8.54135H590.385M575.654 8.54135L571.252 5.94409M605.317 16.8871L610.655 19.8706M605.317 16.8871H619.833M615.411 14.0079L610.175 11.2275M615.411 14.0079L619.833 16.3559M615.411 14.0079H619.833M610.175 11.2275L605.115 8.54135M610.175 11.2275H619.833M590.385 8.54135H605.115M590.385 8.54135L585.738 5.94409M605.115 8.54135L600.224 5.94409M605.115 8.54135H619.833M594.857 19.8706H610.655M594.857 19.8706H579.059M616.189 22.964L610.655 19.8706M616.189 22.964L619.833 25.0002M616.189 22.964H619.833M610.655 19.8706H619.833M579.059 19.8706H563.262M579.059 19.8706L574.283 16.8871M574.283 16.8871H558.767M611.19 29.5059L617.059 32.9688M611.19 29.5059H594.485M611.19 29.5059H619.833M619.883 26.1736H619.833M617.059 32.9688H600.028M617.059 32.9688L619.833 34.6054M617.059 32.9688H619.833M600.028 32.9688H582.997M600.028 32.9688L594.485 29.5059M594.485 29.5059H577.78M527.734 16.8871L531.667 19.8706M527.734 16.8871H543.25M527.734 16.8871H512.217M539.183 14.0079L535.256 11.2275M539.183 14.0079L543.25 16.8871M539.183 14.0079H554.429M535.256 11.2275H550.24M535.256 11.2275L531.461 8.54135M516.731 8.54135H531.461M516.731 8.54135L513.307 5.94409M516.731 8.54135H502M543.25 16.8871L547.464 19.8706M543.25 16.8871H558.767M554.429 14.0079L550.24 11.2275M554.429 14.0079L558.767 16.8871M550.24 11.2275L546.192 8.54135M531.461 8.54135H546.192M531.461 8.54135L527.793 5.94409M558.767 16.8871L563.262 19.8706M560.923 8.54135H546.192M560.923 8.54135L556.765 5.94409M546.192 8.54135L542.279 5.94409M531.667 19.8706H547.464M531.667 19.8706H515.869M551.834 22.964L547.464 19.8706M551.834 22.964L556.368 26.1736M551.834 22.964H567.923M547.464 19.8706H563.262M515.869 19.8706H500.071M515.869 19.8706L512.217 16.8871M563.262 19.8706L567.923 22.964M512.217 16.8871H496.7M556.368 26.1736L561.075 29.5059M556.368 26.1736H572.759M567.923 22.964L572.759 26.1736M572.759 26.1736L577.78 29.5059M544.37 29.5059L548.935 32.9688M544.37 29.5059H561.075M544.37 29.5059H527.665M561.075 29.5059L565.966 32.9688M561.075 29.5059H577.78M577.78 29.5059L582.997 32.9688M548.935 32.9688H565.966M548.935 32.9688H531.904M571.052 36.5693L565.966 32.9688M571.052 36.5693L576.344 40.3161M571.052 36.5693H588.422M565.966 32.9688H582.997M531.904 32.9688H514.873M531.904 32.9688L527.665 29.5059M582.997 32.9688L588.422 36.5693M527.665 29.5059H510.96M576.344 40.3161L581.856 44.2182M576.344 40.3161H594.067M588.422 36.5693L594.067 40.3161M594.067 40.3161L599.947 44.2182M563.766 44.2182L569.128 48.2857M563.766 44.2182H581.856M563.766 44.2182H545.675M581.856 44.2182L587.602 48.2857M581.856 44.2182H599.947M599.947 44.2182L606.075 48.2857M599.947 44.2182H618.037M618.037 44.2182H619.833M618.037 44.2182L619.833 45.3402M569.128 48.2857H587.602M569.128 48.2857H550.655M593.596 52.5291L587.602 48.2857M593.596 52.5291L599.854 56.9599M593.596 52.5291H612.468M587.602 48.2857H606.075M550.655 48.2857H532.181M550.655 48.2857L545.675 44.2182M606.075 48.2857L612.468 52.5291M606.075 48.2857H619.833M545.675 44.2182H527.585M599.854 56.9599L606.396 61.5914M599.854 56.9599H619.145M612.468 52.5291L619.145 56.9599M612.468 52.5291H619.833M619.93 48.2857H619.833M619.145 56.9599L619.833 57.4171M619.145 56.9599H619.833M586.67 61.5914L593.058 66.437M586.67 61.5914H606.396M586.67 61.5914H566.944M606.396 61.5914L613.241 66.437M606.396 61.5914H619.833M620 57.5277L619.833 57.4171M593.058 66.437H613.241M593.058 66.437H572.875M613.241 66.437H619.833M613.241 66.437L619.833 71.1042M572.875 66.437H552.693M572.875 66.437L566.944 61.5914M566.944 61.5914H547.217M614.129 82.4193H592.441M614.129 82.4193L619.833 86.7464M614.129 82.4193H619.833M619.99 76.8332H619.833M592.441 82.4193H570.753M592.441 82.4193L599.628 88.2897M619.896 86.7941L619.833 86.7464M465.667 16.8871L468.476 19.8706M465.667 16.8871H481.183M465.667 16.8871H450.15M478.201 14.0079L475.321 11.2275M478.201 14.0079L481.183 16.8871M478.201 14.0079H493.447M475.321 11.2275H490.305M475.321 11.2275L472.539 8.54135M457.808 8.54135H472.539M457.808 8.54135L456.881 7.55722L455.362 5.94409M457.808 8.54135H443.077M481.183 16.8871L484.274 19.8706M481.183 16.8871H496.7M493.447 14.0079L490.305 11.2275M493.447 14.0079L496.7 16.8871M490.305 11.2275L487.269 8.54135M472.539 8.54135H487.269M472.539 8.54135L469.848 5.94409M496.7 16.8871L500.071 19.8706M502 8.54135L498.821 5.94409M502 8.54135H487.269M487.269 8.54135L486.897 8.21156L486.157 7.55722L484.334 5.94409M468.476 19.8706H484.274M468.476 19.8706H452.679M487.478 22.964L484.274 19.8706M487.478 22.964L490.803 26.1736M487.478 22.964H503.567M484.274 19.8706H500.071M452.679 19.8706H436.881M452.679 19.8706L450.15 16.8871M500.071 19.8706L503.567 22.964M450.15 16.8871H434.633M490.803 26.1736L494.255 29.5059M490.803 26.1736H507.194M503.567 22.964L504.013 23.3583L507.194 26.1736M507.194 26.1736L510.96 29.5059M477.55 29.5059L477.951 29.9318L480.811 32.9688M477.55 29.5059H494.255M477.55 29.5059H460.845M494.255 29.5059L497.842 32.9688M494.255 29.5059H510.96M510.96 29.5059L514.873 32.9688M480.811 32.9688H497.842M480.811 32.9688H463.78M501.571 36.5693L497.842 32.9688M501.571 36.5693L505.453 40.3161M501.571 36.5693H518.941M497.842 32.9688H514.873M463.78 32.9688H446.748M463.78 32.9688L460.845 29.5059M514.873 32.9688L518.941 36.5693M460.845 29.5059H444.14M505.453 40.3161L509.495 44.2182M505.453 40.3161H523.175M518.941 36.5693L523.175 40.3161M523.175 40.3161L527.585 44.2182M491.404 44.2182L495.234 48.2857M491.404 44.2182H509.495M491.404 44.2182H473.314M509.495 44.2182L513.708 48.2857M509.495 44.2182H527.585M527.585 44.2182L532.181 48.2857M495.234 48.2857H513.708M495.234 48.2857H476.761M518.103 52.5291L513.708 48.2857M518.103 52.5291L522.693 56.9599M518.103 52.5291H536.976M513.708 48.2857H532.181M476.761 48.2857H458.288M476.761 48.2857L473.314 44.2182M532.181 48.2857L536.976 52.5291M473.314 44.2182H455.223M522.693 56.9599L527.491 61.5914M522.693 56.9599H541.984M536.976 52.5291L541.984 56.9599M541.984 56.9599L547.217 61.5914M507.764 61.5914L512.327 66.437M507.764 61.5914H527.491M507.764 61.5914H488.038M527.491 61.5914L532.51 66.437M527.491 61.5914H547.217M547.217 61.5914L552.693 66.437M512.327 66.437H532.51M512.327 66.437H492.144M537.767 71.512L532.51 66.437M537.767 71.512L543.279 76.8332M537.767 71.512H558.428M532.51 66.437H552.693M492.144 66.437H471.962M492.144 66.437L488.038 61.5914M552.693 66.437L558.428 71.512M488.038 61.5914H468.311M543.279 76.8332L549.065 82.4193M543.279 76.8332H564.441M558.428 71.512L564.441 76.8332M564.441 76.8332L570.753 82.4193M527.378 82.4193L532.906 88.2897M527.378 82.4193H549.065M527.378 82.4193H505.69M549.065 82.4193L555.146 88.2897M549.065 82.4193H570.753M570.753 82.4193L577.387 88.2897M532.906 88.2897H555.146M532.906 88.2897H510.665M561.545 94.4674L555.146 88.2897M561.545 94.4674L568.288 100.977M561.545 94.4674H584.368M555.146 88.2897H577.387M510.665 88.2897H488.424M510.665 88.2897L505.69 82.4193M577.387 88.2897L584.368 94.4674M577.387 88.2897H599.628M505.69 82.4193H484.002M568.288 100.977L575.403 107.846M568.288 100.977H591.724M584.368 94.4674L591.724 100.977M599.628 88.2897H619.833M591.724 100.977L599.486 107.846M551.322 107.846L558.157 115.105M551.322 107.846H575.403M551.322 107.846H527.239M575.403 107.846L582.923 115.105M575.403 107.846H599.486M599.486 107.846L607.688 115.105M599.486 107.846H619.833M558.157 115.105H582.923M558.157 115.105H533.391M590.881 122.788L582.923 115.105M590.881 122.788L599.319 130.933M590.881 122.788H616.37M582.923 115.105H607.688M533.391 115.105H508.625M533.391 115.105L527.239 107.846M607.688 115.105L616.37 122.788M607.688 115.105H619.833M527.239 107.846H503.157M599.319 130.933L608.279 139.584M599.319 130.933H619.833M616.37 122.788H619.833M616.37 122.788L619.833 125.852M581.209 139.584L589.876 148.789M581.209 139.584H608.279M581.209 139.584H554.138M608.279 139.584L617.814 148.789M608.279 139.584H619.833M589.876 148.789H617.814M589.876 148.789H561.939M617.814 148.789L619.833 150.738M617.814 148.789H619.833M561.939 148.789H534.001M561.939 148.789L554.138 139.584M554.138 139.584H527.067M619.565 180.315H588.658M619.565 180.315H619.833M619.565 180.315L619.833 180.601M588.658 180.315H557.752M588.658 180.315L598.874 192.368M403.6 16.8871L404.225 17.9931L404.435 18.3655L405.286 19.8706M403.6 16.8871H419.117M403.6 16.8871H388.083M417.219 14.0079L415.838 11.9139L415.386 11.2275M417.219 14.0079L418.876 16.5215L419.117 16.8871M417.219 14.0079H432.464M415.386 11.2275H430.37M415.386 11.2275L413.615 8.54135M398.885 8.54135H413.615M398.885 8.54135L398.328 7.55722L397.417 5.94409M398.885 8.54135H384.154M419.117 16.8871L419.602 17.6227L421.083 19.8706M419.117 16.8871H434.633M432.464 14.0079L430.37 11.2275M432.464 14.0079L434.633 16.8871M430.37 11.2275L428.846 9.20429L428.346 8.54135M413.615 8.54135H428.346M413.615 8.54135L411.903 5.94409M434.633 16.8871L436.881 19.8706M443.077 8.54135L442.798 8.21156L440.876 5.94409M443.077 8.54135H428.346M428.346 8.54135L427.605 7.55722L426.39 5.94409M405.286 19.8706H421.083M405.286 19.8706H389.488M423.122 22.964L421.083 19.8706M423.122 22.964L425.238 26.1736M423.122 22.964H439.211M421.083 19.8706H436.881M389.488 19.8706H373.69M389.488 19.8706L388.083 16.8871M436.881 19.8706L439.211 22.964M388.083 16.8871H372.567M425.238 26.1736L426.601 28.2417L426.878 28.6609L427.435 29.5059M425.238 26.1736H441.629M439.211 22.964L441.629 26.1736M441.629 26.1736L444.14 29.5059M410.73 29.5059L412.686 32.9688M410.73 29.5059H427.435M410.73 29.5059H394.025M427.435 29.5059L429.717 32.9688M427.435 29.5059H444.14M444.14 29.5059L446.748 32.9688M412.686 32.9688H429.717M412.686 32.9688H395.655M432.091 36.5693L430.596 34.3023L430.302 33.8554L429.717 32.9688M432.091 36.5693L434.561 40.3161M432.091 36.5693H449.461M429.717 32.9688H446.748M395.655 32.9688H378.624M395.655 32.9688L394.025 29.5059M446.748 32.9688L449.461 36.5693M394.025 29.5059H377.32M434.561 40.3161L437.133 44.2182M434.561 40.3161H452.284M449.461 36.5693L452.284 40.3161M452.284 40.3161L455.223 44.2182M419.043 44.2182L420.18 46.2305L420.467 46.7405L421.341 48.2857M419.043 44.2182H437.133M419.043 44.2182H400.952M437.133 44.2182L439.814 48.2857M437.133 44.2182H455.223M455.223 44.2182L458.288 48.2857M421.341 48.2857H439.814M421.341 48.2857H402.867M442.611 52.5291L439.814 48.2857M442.611 52.5291L445.532 56.9599M442.611 52.5291H461.484M439.814 48.2857H458.288M402.867 48.2857H384.394M402.867 48.2857L402.381 47.2528L400.952 44.2182M458.288 48.2857L461.484 52.5291M400.952 44.2182H382.862M445.532 56.9599L448.585 61.5914M445.532 56.9599H464.822M461.484 52.5291L464.822 56.9599M464.822 56.9599L468.311 61.5914M428.858 61.5914L431.596 66.437M428.858 61.5914H448.585M428.858 61.5914H409.132M448.585 61.5914L451.779 66.437M448.585 61.5914H468.311M468.311 61.5914L471.962 66.437M431.596 66.437H451.779M431.596 66.437H411.414M455.124 71.512L451.779 66.437M455.124 71.512L458.632 76.8332M455.124 71.512H475.785M451.779 66.437H471.962M411.414 66.437H391.231M411.414 66.437L409.132 61.5914M471.962 66.437L475.785 71.512M409.132 61.5914H389.406M458.632 76.8332L462.314 82.4193M458.632 76.8332H479.794M475.785 71.512L479.794 76.8332M479.794 76.8332L484.002 82.4193M440.627 82.4193L443.944 88.2897M440.627 82.4193H462.314M440.627 82.4193H418.939M462.314 82.4193L466.184 88.2897M462.314 82.4193H484.002M484.002 82.4193L488.424 88.2897M443.944 88.2897H466.184M443.944 88.2897H421.703M470.256 94.4674L466.184 88.2897M470.256 94.4674L474.547 100.977M470.256 94.4674H493.079M466.184 88.2897H488.424M421.703 88.2897H399.462M421.703 88.2897L418.939 82.4193M488.424 88.2897L493.079 94.4674M418.939 82.4193H397.251M474.547 100.977L479.075 107.846M474.547 100.977H497.983M493.079 94.4674L497.983 100.977M497.983 100.977L503.157 107.846M454.993 107.846L459.094 115.105M454.993 107.846H479.075M454.993 107.846H430.911M479.075 107.846L483.86 115.105M479.075 107.846H503.157M503.157 107.846L508.625 115.105M459.094 115.105H483.86M459.094 115.105H434.328M488.924 122.788L483.86 115.105M488.924 122.788L494.294 130.933M488.924 122.788H514.414M483.86 115.105H508.625M434.328 115.105H409.563M434.328 115.105L430.911 107.846M508.625 115.105L514.414 122.788M430.911 107.846H406.829M494.294 130.933L499.996 139.584M494.294 130.933H520.55M514.414 122.788L520.55 130.933M520.55 130.933L527.067 139.584M472.925 139.584L478.126 148.789M472.925 139.584H499.996M472.925 139.584H445.854M499.996 139.584L506.064 148.789M499.996 139.584H527.067M527.067 139.584L534.001 148.789M478.126 148.789H506.064M478.126 148.789H450.188M512.532 158.602L506.064 148.789M512.532 158.602L519.444 169.088M512.532 158.602H541.395M506.064 148.789H534.001M450.188 148.789H422.251M450.188 148.789L445.854 139.584M534.001 148.789L541.395 158.602M445.854 139.584H418.783M519.444 169.088L526.846 180.315M519.444 169.088H549.293M541.395 158.602L549.293 169.088M549.293 169.088L557.752 180.315M495.939 180.315L502.749 192.368M495.939 180.315H526.846M495.939 180.315H465.033M526.846 180.315L534.79 192.368M526.846 180.315H557.752M557.752 180.315L566.832 192.368M502.749 192.368H534.79M502.749 192.368H470.707M543.341 205.34L534.79 192.368M543.341 205.34L552.57 219.34M543.341 205.34H576.604M534.79 192.368H566.832M470.707 192.368H438.666M470.707 192.368L465.033 180.315M566.832 192.368L576.604 205.34M566.832 192.368H598.874M465.033 180.315H434.126M552.57 219.34L562.56 234.495M552.57 219.34H587.151M576.604 205.34L587.151 219.34M598.874 192.368H619.833M587.151 219.34L598.568 234.495M587.151 219.34H619.833M526.551 234.495L535.851 250.956M526.551 234.495H562.56M526.551 234.495H490.543M562.56 234.495L573.41 250.956M562.56 234.495H598.568M598.568 234.495L610.968 250.956M598.568 234.495H619.833M535.851 250.956H573.41M535.851 250.956H498.293M585.236 268.897L573.41 250.956M585.236 268.897L598.177 288.528M585.236 268.897H619.833M573.41 250.956H610.968M498.293 250.956H460.734M498.293 250.956L490.543 234.495M610.968 250.956H619.833M610.968 250.956L619.833 262.723M490.543 234.495H454.534M598.177 288.528L612.397 310.1M598.177 288.528H619.833M569.268 310.1L582.724 333.915M569.268 310.1H612.397M569.268 310.1H526.141M612.397 310.1L619.833 321.382M612.397 310.1H619.833M582.724 333.915H537.354M582.724 333.915L619.833 333.915M537.354 333.915H491.983M537.354 333.915L526.141 310.1M526.141 310.1H483.012M341.533 16.8871L341.603 17.2542L341.672 17.6227L341.742 17.9931L341.812 18.3655L342.024 19.4916L342.095 19.8706M341.533 16.8871H357.05M341.533 16.8871H326.017M356.237 14.0079L355.645 11.9139L355.451 11.2275M356.237 14.0079L356.742 15.7955L357.05 16.8871M356.237 14.0079H371.482M355.451 11.2275H370.435M355.451 11.2275L354.88 9.20429L354.692 8.54135M339.961 8.54135L339.9 8.21156L339.654 6.90766L339.472 5.94409M339.961 8.54135H354.692M339.961 8.54135H325.231M357.05 16.8871L357.154 17.2542L357.258 17.6227L357.362 17.9931L357.468 18.3655L357.893 19.8706M357.05 16.8871H372.567M371.482 14.0079L370.693 11.9139L370.435 11.2275M371.482 14.0079L372.567 16.8871M370.435 11.2275L369.925 9.87297L369.548 8.87212L369.423 8.54135M354.692 8.54135L354.599 8.21156L354.414 7.55722L354.231 6.90766L354.14 6.58504L353.958 5.94409M354.692 8.54135H369.423M372.567 16.8871L373.406 19.1145L373.69 19.8706M384.154 8.54135L383.233 6.58504L382.931 5.94409M384.154 8.54135H369.423M369.423 8.54135L368.565 6.26385L368.445 5.94409M342.095 19.8706H357.893M342.095 19.8706H326.298M358.767 22.964L357.893 19.8706M358.767 22.964L359.673 26.1736M358.767 22.964H374.856M357.893 19.8706H373.69M326.298 19.8706H310.5M326.298 19.8706L326.017 16.8871M373.69 19.8706L374.856 22.964M326.017 16.8871H310.5M359.673 26.1736L359.906 26.9947L360.258 28.2417L360.615 29.5059M359.673 26.1736H376.065M374.856 22.964L375.004 23.3583L376.065 26.1736M376.065 26.1736L376.219 26.5832L376.374 26.9947L376.53 27.4086L377.32 29.5059M343.91 29.5059L344.562 32.9688M343.91 29.5059H360.615M343.91 29.5059H327.205M360.615 29.5059L361.593 32.9688M360.615 29.5059H377.32M377.32 29.5059L378.293 32.0903L378.459 32.5286L378.624 32.9688M344.562 32.9688H361.593M344.562 32.9688H327.531M362.61 36.5693L362.74 37.0296L362.871 37.4918L363.002 37.9569L363.669 40.3161M362.61 36.5693L362.097 34.7511L361.97 34.3023L361.844 33.8554L361.593 32.9688M362.61 36.5693H379.98M361.593 32.9688H378.624M327.531 32.9688H310.5M327.531 32.9688L327.205 29.5059M378.624 32.9688L379.98 36.5693M327.205 29.5059H310.5M363.669 40.3161L364.631 43.7216L364.771 44.2182M363.669 40.3161H381.392M379.98 36.5693L380.328 37.4918L381.392 40.3161M381.392 40.3161L381.936 41.7605L382.862 44.2182M346.681 44.2182L347.06 46.2305L347.156 46.7405L347.447 48.2857M346.681 44.2182H364.771M346.681 44.2182H328.591M364.771 44.2182L365.92 48.2857M364.771 44.2182H382.862M382.862 44.2182L384.394 48.2857M347.447 48.2857H365.92M347.447 48.2857H328.973M367.119 52.5291L365.92 48.2857M367.119 52.5291L368.371 56.9599M367.119 52.5291H385.992M365.92 48.2857H384.394M328.973 48.2857H310.5M328.973 48.2857L328.876 47.2528L328.685 45.2191L328.591 44.2182M384.394 48.2857L385.992 52.5291M328.591 44.2182H310.5M368.371 56.9599L369.346 60.4142L369.679 61.5914M368.371 56.9599H387.661M385.992 52.5291L387.661 56.9599M387.661 56.9599L388.524 59.2498L389.406 61.5914M349.953 61.5914L350.865 66.437M349.953 61.5914H369.679M349.953 61.5914H330.226M369.679 61.5914L371.048 66.437M369.679 61.5914H389.406M389.406 61.5914L391.231 66.437M350.865 66.437H371.048M350.865 66.437H330.683M372.482 71.512L372.117 70.2211L371.048 66.437M372.482 71.512L373.985 76.8332M372.482 71.512H393.143M371.048 66.437H391.231M330.683 66.437H310.5M330.683 66.437L330.226 61.5914M391.231 66.437L393.143 71.512M330.226 61.5914H310.5M373.985 76.8332L375.563 82.4193M373.985 76.8332H395.147M393.143 71.512L395.147 76.8332M395.147 76.8332L397.251 82.4193M353.876 82.4193L354.981 88.2897M353.876 82.4193H375.563M353.876 82.4193H332.188M375.563 82.4193L377.222 88.2897M375.563 82.4193H397.251M397.251 82.4193L399.462 88.2897M354.981 88.2897H377.222M354.981 88.2897H332.74M378.967 94.4674L377.222 88.2897M378.967 94.4674L380.806 100.977M378.967 94.4674H401.789M377.222 88.2897H399.462M332.74 88.2897H310.5M332.74 88.2897L332.255 83.1372L332.188 82.4193M399.462 88.2897L401.789 94.4674M332.188 82.4193H310.5M380.806 100.977L382.746 107.846M380.806 100.977H404.241M401.789 94.4674L403.616 99.3173L404.241 100.977M404.241 100.977L406.829 107.846M358.664 107.846L360.031 115.105M358.664 107.846H382.746M358.664 107.846H334.582M382.746 107.846L384.797 115.105M382.746 107.846H406.829M406.829 107.846L409.563 115.105M360.031 115.105H384.797M360.031 115.105H335.266M386.968 122.788L384.797 115.105M386.968 122.788L389.269 130.933M386.968 122.788H412.457M384.797 115.105H409.563M335.266 115.105H310.5M335.266 115.105L334.582 107.846M409.563 115.105L412.457 122.788M334.582 107.846H310.5M389.269 130.933L391.713 139.584M389.269 130.933H415.525M412.457 122.788L415.525 130.933M415.525 130.933L418.783 139.584M364.642 139.584L366.375 148.789M364.642 139.584H391.713M364.642 139.584H337.571M391.713 139.584L394.313 148.789M391.713 139.584H418.783M418.783 139.584L422.251 148.789M366.375 148.789H394.313M366.375 148.789H338.438M397.085 158.602L394.313 148.789M397.085 158.602L400.048 169.088M397.085 158.602H425.947M394.313 148.789H422.251M338.438 148.789H310.5M338.438 148.789L337.571 139.584M422.251 148.789L425.947 158.602M337.571 139.584H310.5M400.048 169.088L403.219 180.315M400.048 169.088H429.897M425.947 158.602L429.897 169.088M429.897 169.088L434.126 180.315M372.313 180.315L374.583 192.368M372.313 180.315H403.219M372.313 180.315H341.407M403.219 180.315L406.624 192.368M403.219 180.315H434.126M434.126 180.315L438.666 192.368M374.583 192.368H406.624M374.583 192.368H342.541M410.289 205.34L406.624 192.368M410.289 205.34L414.244 219.34M410.289 205.34H443.552M406.624 192.368H438.666M342.541 192.368H310.5M342.541 192.368L341.407 180.315M438.666 192.368L443.552 205.34M341.407 180.315H310.5M414.244 219.34L418.526 234.495M414.244 219.34H448.826M443.552 205.34L448.826 219.34M448.826 219.34L454.534 234.495M382.517 234.495L385.617 250.956M382.517 234.495H418.526M382.517 234.495H346.509M418.526 234.495L423.176 250.956M418.526 234.495H454.534M454.534 234.495L460.734 250.956M385.617 250.956H423.176M385.617 250.956H348.059M428.244 268.897L423.176 250.956M428.244 268.897L433.79 288.528M428.244 268.897H467.492M423.176 250.956H460.734M348.059 250.956H310.5M348.059 250.956L346.509 234.495M460.734 250.956L467.492 268.897M346.509 234.495H310.5M433.79 288.528L439.884 310.1M433.79 288.528H474.887M467.492 268.897L474.887 288.528M474.887 288.528L483.012 310.1M396.756 310.1L401.241 333.915M396.756 310.1H439.884M396.756 310.1H353.628M439.884 310.1L446.612 333.915M439.884 310.1H483.012M483.012 310.1L491.983 333.915M446.612 333.915H401.241M446.612 333.915H491.983M401.241 333.915H355.871M355.871 333.915H310.5M355.871 333.915L353.628 310.1M353.628 310.1H310.5M279.467 16.8871L279.398 17.2542L279.328 17.6227L279.258 17.9931L279.188 18.3655L279.047 19.1145L278.976 19.4916L278.905 19.8706M279.467 16.8871H294.983M279.467 16.8871H263.95M295.254 14.0079L295.516 11.2275M295.254 14.0079L294.983 16.8871M295.254 14.0079H310.5M295.516 11.2275L295.548 10.8867L295.58 10.5474L295.612 10.2095L295.769 8.54135M295.516 11.2275H310.5M281.039 8.54135L281.1 8.21156L281.346 6.90766L281.528 5.94409M281.039 8.54135H295.769M281.039 8.54135H266.308M294.983 16.8871L294.949 17.2542L294.914 17.6227L294.879 17.9931L294.702 19.8706M294.983 16.8871H310.5M310.5 14.0079V11.2275M310.5 14.0079V16.8871M310.5 11.2275V8.54135M295.769 8.54135H310.5M295.769 8.54135L295.862 7.55722L295.893 7.23173L296.014 5.94409M310.5 16.8871V19.8706M325.231 8.54135L325.138 7.55722L325.107 7.23173L325.077 6.90766L325.046 6.58504L325.016 6.26385L324.986 5.94409M325.231 8.54135H310.5M310.5 8.54135V5.94409M278.905 19.8706H294.702M278.905 19.8706H263.107M294.411 22.964L294.374 23.3583L294.337 23.755L294.109 26.1736M294.411 22.964L294.702 19.8706M294.411 22.964H310.5M294.702 19.8706H310.5M263.107 19.8706H247.31M263.107 19.8706L263.321 19.1145L263.427 18.7393L263.532 18.3655L263.638 17.9931L263.742 17.6227L263.846 17.2542L263.95 16.8871M310.5 19.8706V22.964M263.95 16.8871H248.433M294.109 26.1736L293.795 29.5059M294.109 26.1736H310.5M310.5 22.964V26.1736M310.5 26.1736V29.5059M277.09 29.5059L276.438 32.9688M277.09 29.5059H293.795M277.09 29.5059H260.385M293.795 29.5059L293.469 32.9688M293.795 29.5059H310.5M310.5 29.5059V32.9688M276.438 32.9688H293.469M276.438 32.9688H259.407M293.13 36.5693L293.469 32.9688M293.13 36.5693L292.777 40.3161M293.13 36.5693H310.5M293.469 32.9688H310.5M259.407 32.9688H242.376M259.407 32.9688L260.385 29.5059M310.5 32.9688V36.5693M260.385 29.5059H243.68M292.777 40.3161L292.641 41.7605L292.503 43.2274L292.409 44.2182M292.777 40.3161H310.5M310.5 36.5693V40.3161M310.5 40.3161V44.2182M274.319 44.2182L273.94 46.2305L273.844 46.7405L273.553 48.2857M274.319 44.2182H292.409M274.319 44.2182H256.229M292.409 44.2182L292.315 45.2191L292.124 47.2528L292.027 48.2857M292.409 44.2182H310.5M310.5 44.2182V48.2857M273.553 48.2857H292.027M273.553 48.2857H255.08M291.627 52.5291L291.678 51.9885L292.027 48.2857M291.627 52.5291L291.21 56.9599M291.627 52.5291H310.5M292.027 48.2857H310.5M255.08 48.2857H236.606M255.08 48.2857L256.229 44.2182M310.5 48.2857V52.5291M256.229 44.2182H238.138M291.21 56.9599L290.774 61.5914M291.21 56.9599H310.5M310.5 52.5291V56.9599M310.5 56.9599V61.5914M271.047 61.5914L270.135 66.437M271.047 61.5914H290.774M271.047 61.5914H251.321M290.774 61.5914L290.317 66.437M290.774 61.5914H310.5M310.5 61.5914V66.437M270.135 66.437H290.317M270.135 66.437H249.952M289.839 71.512L290.317 66.437M289.839 71.512L289.338 76.8332M289.839 71.512H310.5M290.317 66.437H310.5M249.952 66.437H229.769M249.952 66.437L251.321 61.5914M310.5 66.437V71.512M251.321 61.5914H231.594M289.338 76.8332L288.812 82.4193M289.338 76.8332H310.5M310.5 71.512V76.8332M310.5 76.8332V82.4193M267.124 82.4193L266.019 88.2897M267.124 82.4193H288.812M267.124 82.4193H245.437M288.812 82.4193L288.26 88.2897M288.812 82.4193H310.5M310.5 82.4193V88.2897M266.019 88.2897H288.26M266.019 88.2897H243.778M287.678 94.4674L288.26 88.2897M287.678 94.4674L287.065 100.977M287.678 94.4674H310.5M288.26 88.2897H310.5M243.778 88.2897H221.538M243.778 88.2897L245.437 82.4193M310.5 88.2897V94.4674M245.437 82.4193H223.749M287.065 100.977L286.418 107.846M287.065 100.977H310.5M310.5 94.4674V100.977M310.5 100.977V107.846M262.336 107.846L260.969 115.105M262.336 107.846H286.418M262.336 107.846H238.254M286.418 107.846L285.734 115.105M286.418 107.846H310.5M310.5 107.846V115.105M260.969 115.105H285.734M260.969 115.105H236.203M285.011 122.788L285.734 115.105M285.011 122.788L284.244 130.933M285.011 122.788H310.5M285.734 115.105H310.5M236.203 115.105H211.437M236.203 115.105L238.254 107.846M310.5 115.105V122.788M238.254 107.846H214.171M284.244 130.933L283.429 139.584M284.244 130.933H310.5M310.5 122.788V130.933M310.5 130.933V139.584M256.358 139.584L254.625 148.789M256.358 139.584H283.429M256.358 139.584H229.287M283.429 139.584L282.562 148.789M283.429 139.584H310.5M310.5 139.584V148.789M254.625 148.789H282.562M254.625 148.789H226.687M281.638 158.602L282.562 148.789M281.638 158.602L280.651 169.088M281.638 158.602H310.5M282.562 148.789H310.5M226.687 148.789H198.749M226.687 148.789L229.287 139.584M310.5 148.789V158.602M229.287 139.584H202.217M280.651 169.088L279.593 180.315M280.651 169.088H310.5M310.5 158.602V169.088M310.5 169.088V180.315M248.687 180.315L246.417 192.368M248.687 180.315H279.593M248.687 180.315H217.781M279.593 180.315L278.459 192.368M279.593 180.315H310.5M310.5 180.315V192.368M246.417 192.368H278.459M246.417 192.368H214.376M277.237 205.34L278.459 192.368M277.237 205.34L275.919 219.34M277.237 205.34H310.5M278.459 192.368H310.5M214.376 192.368H182.334M214.376 192.368L217.781 180.315M310.5 192.368V205.34M217.781 180.315H186.874M275.919 219.34L274.491 234.495M275.919 219.34H310.5M310.5 205.34V219.34M310.5 219.34V234.495M238.483 234.495L235.383 250.956M238.483 234.495H274.491M238.483 234.495H202.474M274.491 234.495L272.941 250.956M274.491 234.495H310.5M310.5 234.495V250.956M235.383 250.956H272.941M235.383 250.956H197.824M271.252 268.897L272.941 250.956M271.252 268.897L269.403 288.528M271.252 268.897H310.5M272.941 250.956H310.5M197.824 250.956H160.266M197.824 250.956L202.474 234.495M310.5 250.956V268.897M202.474 234.495H166.466M269.403 288.528L267.372 310.1M269.403 288.528H310.5M310.5 268.897V288.528M310.5 288.528V310.1M224.244 310.1L219.759 333.915M224.244 310.1H267.372M224.244 310.1H181.116M267.372 310.1L265.129 333.915M267.372 310.1H310.5M310.5 310.1V333.915M265.129 333.915H219.759M265.129 333.915H310.5M219.759 333.915H174.388M174.388 333.915H129.017M174.388 333.915L181.116 310.1M181.116 310.1H137.988M217.4 16.8871L216.565 18.3655L215.714 19.8706M217.4 16.8871H232.917M217.4 16.8871H201.883M234.272 14.0079L235.581 11.2275M234.272 14.0079L232.917 16.8871M234.272 14.0079H249.518M235.581 11.2275H250.565M235.581 11.2275L236.534 9.20429L236.846 8.54135M222.115 8.54135H236.846M222.115 8.54135L222.672 7.55722L223.583 5.94409M222.115 8.54135H207.385M232.917 16.8871L231.512 19.8706M232.917 16.8871H248.433M249.518 14.0079L250.565 11.2275M249.518 14.0079L248.433 16.8871M250.565 11.2275L251.075 9.87297L251.452 8.87212L251.577 8.54135M236.846 8.54135H251.577M236.846 8.54135L237.767 6.58504L238.069 5.94409M248.433 16.8871L247.594 19.1145L247.31 19.8706M266.308 8.54135L266.401 8.21156L266.586 7.55722L266.86 6.58504L267.042 5.94409M266.308 8.54135H251.577M251.577 8.54135L251.701 8.21156L251.948 7.55722L252.555 5.94409M215.714 19.8706H231.512M215.714 19.8706H199.917M230.055 22.964L230.241 22.5711L230.425 22.1797L231.153 20.633L231.512 19.8706M230.055 22.964L228.927 25.3596L228.544 26.1736M230.055 22.964H246.144M231.512 19.8706H247.31M199.917 19.8706H184.119M199.917 19.8706L201.398 17.6227L201.883 16.8871M247.31 19.8706L246.144 22.964M201.883 16.8871H186.366M228.544 26.1736L228.351 26.5832L228.157 26.9947L227.571 28.2417L227.373 28.6609L226.975 29.5059M228.544 26.1736H244.935M246.144 22.964L245.996 23.3583L244.935 26.1736M244.935 26.1736L244.781 26.5832L244.626 26.9947L244.47 27.4086L243.68 29.5059M210.27 29.5059L208.314 32.9688M210.27 29.5059H226.975M210.27 29.5059H193.565M226.975 29.5059L225.345 32.9688M226.975 29.5059H243.68M243.68 29.5059L242.376 32.9688M208.314 32.9688H225.345M208.314 32.9688H191.283M223.65 36.5693L225.345 32.9688M223.65 36.5693L221.885 40.3161M223.65 36.5693H241.02M225.345 32.9688H242.376M191.283 32.9688H174.252M191.283 32.9688L193.565 29.5059M242.376 32.9688L241.02 36.5693M193.565 29.5059H176.86M221.885 40.3161L220.048 44.2182M221.885 40.3161H239.608M241.02 36.5693L240.672 37.4918L239.608 40.3161M239.608 40.3161L239.064 41.7605L238.511 43.2274L238.138 44.2182M201.957 44.2182L200.82 46.2305L199.659 48.2857M201.957 44.2182H220.048M201.957 44.2182H183.867M220.048 44.2182L218.133 48.2857M220.048 44.2182H238.138M238.138 44.2182L236.606 48.2857M199.659 48.2857H218.133M199.659 48.2857H181.186M216.135 52.5291L218.133 48.2857M216.135 52.5291L214.049 56.9599M216.135 52.5291H235.008M218.133 48.2857H236.606M181.186 48.2857H162.712M181.186 48.2857L183.867 44.2182M236.606 48.2857L235.008 52.5291M183.867 44.2182H165.777M214.049 56.9599L213.512 58.0984L211.868 61.5914M214.049 56.9599H233.339M235.008 52.5291L233.339 56.9599M233.339 56.9599L233.125 57.5277L232.476 59.2498L231.594 61.5914M192.142 61.5914L189.404 66.437M192.142 61.5914H211.868M192.142 61.5914H172.415M211.868 61.5914L209.586 66.437M211.868 61.5914H231.594M231.594 61.5914L229.769 66.437M189.404 66.437H209.586M189.404 66.437H169.221M207.197 71.512L208.704 68.3125L209.586 66.437M207.197 71.512L204.691 76.8332M207.197 71.512H227.857M209.586 66.437H229.769M169.221 66.437H149.038M169.221 66.437L172.415 61.5914M229.769 66.437L227.857 71.512M172.415 61.5914H152.689M204.691 76.8332L202.061 82.4193M204.691 76.8332H225.853M227.857 71.512L225.853 76.8332M225.853 76.8332L223.749 82.4193M180.373 82.4193L177.056 88.2897M180.373 82.4193H202.061M180.373 82.4193H158.686M202.061 82.4193L199.297 88.2897M202.061 82.4193H223.749M223.749 82.4193L221.538 88.2897M177.056 88.2897H199.297M177.056 88.2897H154.816M196.389 94.4674L199.297 88.2897M196.389 94.4674L193.324 100.977M196.389 94.4674H219.211M199.297 88.2897H221.538M154.816 88.2897H132.576M154.816 88.2897L158.686 82.4193M221.538 88.2897L219.211 94.4674M158.686 82.4193H136.998M193.324 100.977L190.089 107.846M193.324 100.977H216.759M219.211 94.4674L216.759 100.977M216.759 100.977L214.171 107.846M166.007 107.846L161.906 115.105M166.007 107.846H190.089M166.007 107.846H141.925M190.089 107.846L186.672 115.105M190.089 107.846H214.171M214.171 107.846L211.437 115.105M161.906 115.105H186.672M161.906 115.105H137.14M183.054 122.788L186.672 115.105M183.054 122.788L179.219 130.933M183.054 122.788H208.543M186.672 115.105H211.437M137.14 115.105H112.375M137.14 115.105L141.925 107.846M211.437 115.105L208.543 122.788M141.925 107.846H117.843M179.219 130.933L175.146 139.584M179.219 130.933H205.475M208.543 122.788L205.475 130.933M205.475 130.933L202.217 139.584M148.075 139.584L142.874 148.789M148.075 139.584H175.146M148.075 139.584H121.004M175.146 139.584L170.812 148.789M175.146 139.584H202.217M202.217 139.584L198.749 148.789M142.874 148.789H170.812M142.874 148.789H114.937M166.191 158.602L170.812 148.789M166.191 158.602L161.254 169.088M166.191 158.602H195.053M170.812 148.789H198.749M114.937 148.789H86.9989M114.937 148.789L121.004 139.584M198.749 148.789L195.053 158.602M121.004 139.584H93.9331M161.254 169.088L155.968 180.315M161.254 169.088H191.103M195.053 158.602L191.103 169.088M191.103 169.088L186.874 180.315M125.061 180.315L118.251 192.368M125.061 180.315H155.968M125.061 180.315H94.1545M155.968 180.315L150.293 192.368M155.968 180.315H186.874M186.874 180.315L182.334 192.368M118.251 192.368H150.293M118.251 192.368H86.2098M144.185 205.34L150.293 192.368M144.185 205.34L137.593 219.34M144.185 205.34H177.448M150.293 192.368H182.334M86.2098 192.368H54.1683M86.2098 192.368L94.1545 180.315M182.334 192.368L177.448 205.34M94.1545 180.315H63.2479M137.593 219.34L130.457 234.495M137.593 219.34H172.174M177.448 205.34L172.174 219.34M172.174 219.34L166.466 234.495M94.449 234.495L85.1487 250.956M94.449 234.495H130.457M94.449 234.495H58.4403M130.457 234.495L122.707 250.956M130.457 234.495H166.466M166.466 234.495L160.266 250.956M85.1487 250.956H122.707M85.1487 250.956H47.5901M114.26 268.897L122.707 250.956M114.26 268.897L105.017 288.528M114.26 268.897H153.508M122.707 250.956H160.266M47.5901 250.956H10.0316M47.5901 250.956L58.4403 234.495M160.266 250.956L153.508 268.897M58.4403 234.495H22.432M105.017 288.528L94.8598 310.1M105.017 288.528H146.113M153.508 268.897L146.113 288.528M146.113 288.528L137.988 310.1M51.7317 310.1L38.2756 333.915M51.7317 310.1H94.8598M51.7317 310.1H8.60348M94.8598 310.1L83.6465 333.915M94.8598 310.1H137.988M137.988 310.1L129.017 333.915M83.6465 333.915H38.2756M83.6465 333.915H129.017M38.2756 333.915L1.16659 333.915M8.60348 310.1L1.16659 321.382M8.60348 310.1H1.16659M155.333 16.8871L152.524 19.8706M155.333 16.8871H170.85M155.333 16.8871H139.817M173.29 14.0079L175.646 11.2275M173.29 14.0079L170.85 16.8871M173.29 14.0079H188.536M175.646 11.2275H190.63M175.646 11.2275L177.923 8.54135M163.192 8.54135H177.923M163.192 8.54135L164.119 7.55722L165.638 5.94409M163.192 8.54135H148.462M170.85 16.8871L168.321 19.8706M170.85 16.8871H186.366M188.536 14.0079L190.63 11.2275M188.536 14.0079L186.366 16.8871M190.63 11.2275L192.155 9.20429L192.654 8.54135M177.923 8.54135L178.202 8.21156L180.124 5.94409M177.923 8.54135H192.654M186.366 16.8871L184.119 19.8706M207.385 8.54135L209.097 5.94409M207.385 8.54135H192.654M192.654 8.54135L193.395 7.55722L194.611 5.94409M152.524 19.8706H168.321M152.524 19.8706H136.726M165.7 22.964L168.321 19.8706M165.7 22.964L162.98 26.1736M165.7 22.964H181.789M168.321 19.8706H184.119M136.726 19.8706H120.929M136.726 19.8706L139.817 16.8871M184.119 19.8706L181.789 22.964M139.817 16.8871H124.3M162.98 26.1736L162.283 26.9947L160.155 29.5059M162.98 26.1736H179.371M181.789 22.964L179.371 26.1736M179.371 26.1736L176.86 29.5059M143.45 29.5059L143.049 29.9318L140.189 32.9688M143.45 29.5059H160.155M143.45 29.5059H126.745M160.155 29.5059L157.22 32.9688M160.155 29.5059H176.86M176.86 29.5059L176.54 29.9318L174.252 32.9688M140.189 32.9688H157.22M140.189 32.9688H123.158M154.169 36.5693L157.22 32.9688M154.169 36.5693L150.994 40.3161M154.169 36.5693H171.539M157.22 32.9688H174.252M123.158 32.9688H106.127M123.158 32.9688L126.745 29.5059M174.252 32.9688L171.539 36.5693M126.745 29.5059H110.04M150.994 40.3161L147.686 44.2182M150.994 40.3161H168.716M171.539 36.5693L168.716 40.3161M168.716 40.3161L165.777 44.2182M129.596 44.2182L125.766 48.2857M129.596 44.2182H147.686M129.596 44.2182H111.506M147.686 44.2182L144.239 48.2857M147.686 44.2182H165.777M165.777 44.2182L162.712 48.2857M125.766 48.2857H144.239M125.766 48.2857H107.292M140.643 52.5291L144.239 48.2857M140.643 52.5291L136.887 56.9599M140.643 52.5291H159.516M144.239 48.2857H162.712M107.292 48.2857H88.8188M107.292 48.2857L111.506 44.2182M162.712 48.2857L159.516 52.5291M111.506 44.2182H93.415M136.887 56.9599L132.962 61.5914M136.887 56.9599H156.178M159.516 52.5291L156.178 56.9599M156.178 56.9599L152.689 61.5914M113.236 61.5914L108.673 66.437M113.236 61.5914H132.962M113.236 61.5914H93.5094M132.962 61.5914L128.856 66.437M132.962 61.5914H152.689M152.689 61.5914L149.038 66.437M108.673 66.437H128.856M108.673 66.437H88.4901M124.554 71.512L128.856 66.437M124.554 71.512L120.044 76.8332M124.554 71.512H145.215M128.856 66.437H149.038M88.4901 66.437H68.3074M88.4901 66.437L93.5094 61.5914M149.038 66.437L145.215 71.512M93.5094 61.5914H73.7829M120.044 76.8332L115.31 82.4193M120.044 76.8332H141.206M145.215 71.512L141.206 76.8332M141.206 76.8332L136.998 82.4193M93.6225 82.4193L88.0944 88.2897M93.6225 82.4193H115.31M93.6225 82.4193H71.935M115.31 82.4193L110.335 88.2897M115.31 82.4193H136.998M136.998 82.4193L132.576 88.2897M88.0944 88.2897H110.335M88.0944 88.2897H65.8537M105.099 94.4674L110.335 88.2897M105.099 94.4674L99.5823 100.977M105.099 94.4674H127.921M110.335 88.2897H132.576M65.8537 88.2897H43.6133M65.8537 88.2897L71.935 82.4193M132.576 88.2897L127.921 94.4674M71.935 82.4193H50.2472M99.5823 100.977L93.7607 107.846M99.5823 100.977H123.018M127.921 94.4674L123.018 100.977M123.018 100.977L117.843 107.846M69.6785 107.846L62.8432 115.105M69.6785 107.846H93.7607M69.6785 107.846H45.5965M93.7607 107.846L87.6089 115.105M93.7607 107.846H117.843M117.843 107.846L112.375 115.105M62.8432 115.105H87.6089M62.8432 115.105H38.0775M81.0974 122.788L87.6089 115.105M81.0974 122.788L74.1941 130.933M81.0974 122.788H106.586M87.6089 115.105H112.375M38.0775 115.105H13.3118M38.0775 115.105L45.5965 107.846M112.375 115.105L106.586 122.788M45.5965 107.846H21.5143M74.1941 130.933L66.8622 139.584M74.1941 130.933H100.45M106.586 122.788L100.45 130.933M100.45 130.933L93.9331 139.584M39.7914 139.584L31.1236 148.789M39.7914 139.584H66.8622M39.7914 139.584H12.7205M66.8622 139.584L59.0613 148.789M66.8622 139.584H93.9331M93.9331 139.584L86.9989 148.789M31.1236 148.789H59.0613M31.1236 148.789H3.18596M50.7437 158.602L59.0613 148.789M50.7437 158.602L41.8575 169.088M50.7437 158.602H79.6055M59.0613 148.789H86.9989M3.18596 148.789L12.7205 139.584M3.18596 148.789H1.16659M3.18596 148.789L1.16659 150.738M86.9989 148.789L79.6055 158.602M12.7205 139.584H1.16659M41.8575 169.088L32.3416 180.315M41.8575 169.088H71.7065M79.6055 158.602L71.7065 169.088M71.7065 169.088L63.2479 180.315M1.435 180.315H32.3416M1.435 180.315H1.16659M1.435 180.315L1.16659 180.601M32.3416 180.315L22.1265 192.368M32.3416 180.315H63.2479M63.2479 180.315L54.1683 192.368M11.1329 205.34L22.1265 192.368M11.1329 205.34H44.3959M11.1329 205.34H1.16659M11.1329 205.34L1.16659 217.099M22.1265 192.368H54.1683M22.1265 192.368H1.16659M54.1683 192.368L44.3959 205.34M44.3959 205.34L33.8493 219.34M33.8493 219.34L22.432 234.495M33.8493 219.34H1.16659M22.432 234.495L10.0316 250.956M22.432 234.495H1.16659M10.0316 250.956H1.16659M10.0316 250.956L1.16659 262.723M93.2664 16.8871L89.3334 19.8706M93.2664 16.8871H108.783M93.2664 16.8871H77.7498M112.308 14.0079L115.711 11.2275M112.308 14.0079L108.783 16.8871M112.308 14.0079H127.553M115.711 11.2275H130.695M115.711 11.2275L119 8.54135M104.269 8.54135H119M104.269 8.54135L107.693 5.94409M104.269 8.54135H89.5386M108.783 16.8871L105.131 19.8706M108.783 16.8871H124.3M127.553 14.0079L130.695 11.2275M127.553 14.0079L124.3 16.8871M130.695 11.2275L133.731 8.54135M119 8.54135L119.403 8.21156L122.179 5.94409M119 8.54135H133.731M124.3 16.8871L120.929 19.8706M148.462 8.54135L151.152 5.94409M148.462 8.54135H133.731M133.731 8.54135L134.103 8.21156L136.666 5.94409M89.3334 19.8706H105.131M89.3334 19.8706H73.5358M101.344 22.964L105.131 19.8706M101.344 22.964L97.4147 26.1736M101.344 22.964H117.433M105.131 19.8706H120.929M73.5358 19.8706H57.7382M73.5358 19.8706L77.7498 16.8871M120.929 19.8706L117.433 22.964M77.7498 16.8871H62.2332M97.4147 26.1736L93.3351 29.5059M97.4147 26.1736H113.806M117.433 22.964L116.987 23.3583L113.806 26.1736M113.806 26.1736L110.04 29.5059M76.6301 29.5059L72.0652 32.9688M76.6301 29.5059H93.3351M76.6301 29.5059H59.9251M93.3351 29.5059L89.0962 32.9688M93.3351 29.5059H110.04M110.04 29.5059L106.127 32.9688M72.0652 32.9688H89.0962M72.0652 32.9688H55.0341M84.6886 36.5693L89.0962 32.9688M84.6886 36.5693L80.1017 40.3161M84.6886 36.5693H102.059M89.0962 32.9688H106.127M55.0341 32.9688H38.003M55.0341 32.9688L59.9251 29.5059M106.127 32.9688L102.059 36.5693M59.9251 29.5059H43.2202M80.1017 40.3161L75.3248 44.2182M80.1017 40.3161H97.8246M102.059 36.5693L97.8246 40.3161M97.8246 40.3161L93.415 44.2182M57.2342 44.2182L51.8718 48.2857M57.2342 44.2182H75.3248M57.2342 44.2182H39.1437M75.3248 44.2182L70.3455 48.2857M75.3248 44.2182H93.415M93.415 44.2182L88.8188 48.2857M51.8718 48.2857H70.3455M51.8718 48.2857H33.3985M65.1506 52.5291L70.3455 48.2857M65.1506 52.5291L59.7263 56.9599M65.1506 52.5291H84.0238M70.3455 48.2857H88.8188M33.3985 48.2857H14.9252M33.3985 48.2857L39.1437 44.2182M88.8188 48.2857L84.0238 52.5291M39.1437 44.2182H21.0535M59.7263 56.9599L54.0565 61.5914M59.7263 56.9599H79.0165M84.0238 52.5291L79.0165 56.9599M79.0165 56.9599L73.7829 61.5914M34.33 61.5914L27.942 66.437M34.33 61.5914H54.0565M34.33 61.5914H14.6039M54.0565 61.5914L48.1247 66.437M54.0565 61.5914H73.7829M73.7829 61.5914L68.3074 66.437M27.942 66.437H48.1247M41.9116 71.512L48.1247 66.437M41.9116 71.512L35.3976 76.8332M41.9116 71.512H62.5725M48.1247 66.437H68.3074M68.3074 66.437L62.5725 71.512M14.6039 61.5914H1.16659M35.3976 76.8332L28.5594 82.4193M35.3976 76.8332H56.5592M62.5725 71.512L56.5592 76.8332M56.5592 76.8332L50.2472 82.4193M6.87154 82.4193H28.5594M6.87154 82.4193H1.16659M6.87154 82.4193L1.16659 86.7464M28.5594 82.4193L21.3725 88.2897M28.5594 82.4193H50.2472M50.2472 82.4193L43.6133 88.2897M13.8099 94.4674L21.3725 88.2897M13.8099 94.4674L5.84107 100.977M13.8099 94.4674H36.6323M13.8099 94.4674H1.16659M21.3725 88.2897H43.6133M21.3725 88.2897H1.16659M43.6133 88.2897L36.6323 94.4674M1.10376 86.7941L1.16659 86.7464M5.84107 100.977H29.2763M5.84107 100.977H1.16659M5.84107 100.977L1.16659 104.795M36.6323 94.4674L29.2763 100.977M29.2763 100.977L21.5143 107.846M21.5143 107.846L13.3118 115.105M21.5143 107.846H1.16659M4.62984 122.788L13.3118 115.105M4.62984 122.788H1.16659M4.62984 122.788L1.16659 125.852M13.3118 115.105H1.16659M31.2 16.8871L26.143 19.8706M31.2 16.8871H46.7166M31.2 16.8871H15.683M51.3257 14.0079L55.7765 11.2275M51.3257 14.0079L46.7166 16.8871M51.3257 14.0079H66.5713M55.7765 11.2275H70.7602M55.7765 11.2275L60.0769 8.54135M45.3462 8.54135H60.0769M45.3462 8.54135L49.7484 5.94409M45.3462 8.54135H30.6155M46.7166 16.8871L41.9406 19.8706M46.7166 16.8871H62.2332M66.5713 14.0079L70.7602 11.2275M66.5713 14.0079L62.2332 16.8871M70.7602 11.2275L74.8076 8.54135M60.0769 8.54135H74.8076M60.0769 8.54135L64.2348 5.94409M62.2332 16.8871L57.7382 19.8706M89.5386 8.54135L93.2071 5.94409M89.5386 8.54135H74.8076M74.8076 8.54135L78.721 5.94409M26.143 19.8706H41.9406M26.143 19.8706H10.3454M36.9884 22.964L41.9406 19.8706M36.9884 22.964L31.8502 26.1736M36.9884 22.964H53.0773M41.9406 19.8706H57.7382M10.3454 19.8706L15.683 16.8871M10.3454 19.8706H1.16659M57.7382 19.8706L53.0773 22.964M15.683 16.8871H1.16659M31.8502 26.1736L26.5152 29.5059M31.8502 26.1736H48.2413M53.0773 22.964L48.2413 26.1736M48.2413 26.1736L43.2202 29.5059M9.8102 29.5059L3.94092 32.9688M9.8102 29.5059H26.5152M9.8102 29.5059H1.16659M26.5152 29.5059L20.972 32.9688M26.5152 29.5059H43.2202M43.2202 29.5059L38.003 32.9688M15.2081 36.5693L20.972 32.9688M15.2081 36.5693L9.2099 40.3161M15.2081 36.5693H32.5781M15.2081 36.5693H1.16659M20.972 32.9688H3.94092M20.972 32.9688H38.003M3.94092 32.9688L1.16659 34.6054M3.94092 32.9688H1.16659M38.003 32.9688L32.5781 36.5693M9.2099 40.3161L2.96298 44.2182M9.2099 40.3161H26.9328M9.2099 40.3161H1.16659M32.5781 36.5693L26.9328 40.3161M26.9328 40.3161L21.0535 44.2182M2.96298 44.2182H21.0535M2.96298 44.2182L1.16659 45.3402M2.96298 44.2182H1.16659M21.0535 44.2182L14.9252 48.2857M8.53162 52.5291L14.9252 48.2857M8.53162 52.5291L1.8555 56.9599M8.53162 52.5291H1.16659M14.9252 48.2857H1.16659M1.06992 48.2857H1.16659M1.8555 56.9599H1.16659M1.8555 56.9599L1.16659 57.4171M1 57.5277L1.16659 57.4171M5.58909 14.0079L10.8252 11.2275M5.58909 14.0079H1.16659M5.58909 14.0079L1.16659 16.3559M10.8252 11.2275L15.8847 8.54135M10.8252 11.2275H1.16659M30.6155 8.54135L35.2622 5.94409M30.6155 8.54135H15.8847M15.8847 8.54135L20.7761 5.94409M15.8847 8.54135H1.16659M513.307 5.94409H527.793M513.307 5.94409H498.821M524.244 3.43189L525.12 4.05229L527.793 5.94409M524.244 3.43189H538.494M527.793 5.94409H542.279M538.494 3.43189L539.428 4.05229L539.899 4.36393L542.279 5.94409M542.279 5.94409H556.765M556.765 5.94409H571.252M498.821 5.94409H484.334M571.252 5.94409H585.738M585.738 5.94409L581.242 3.43189M585.738 5.94409H600.224M581.242 3.43189H595.492M455.362 5.94409H469.848M455.362 5.94409H440.876M467.246 3.43189L467.888 4.05229L468.212 4.36393L469.848 5.94409M467.246 3.43189H481.495M469.848 5.94409H484.334M481.495 3.43189L484.334 5.94409M440.876 5.94409H426.39M397.417 5.94409H411.903M397.417 5.94409H382.931M410.247 3.43189L410.451 3.74113L410.656 4.05229L410.862 4.36393L411.903 5.94409M410.247 3.43189H424.497M411.903 5.94409H426.39M424.497 3.43189L426.39 5.94409M382.931 5.94409H368.445M339.472 5.94409H353.958M339.472 5.94409H324.986M353.249 3.43189L353.958 5.94409M353.249 3.43189H367.499M353.958 5.94409H368.445M367.499 3.43189L367.615 3.74113L367.732 4.05229L367.85 4.36393L368.445 5.94409M324.986 5.94409H310.5M281.528 5.94409H296.014M281.528 5.94409H267.042M296.25 3.43189L296.014 5.94409M296.25 3.43189H310.5M296.014 5.94409H310.5M310.5 3.43189V5.94409M267.042 5.94409H252.555M223.583 5.94409H238.069M223.583 5.94409H209.097M239.252 3.43189L238.96 4.05229L238.368 5.30792L238.069 5.94409M239.252 3.43189H253.501M238.069 5.94409H252.555M253.501 3.43189L253.385 3.74113L253.268 4.05229L253.15 4.36393L252.555 5.94409M209.097 5.94409H194.611M165.638 5.94409H180.124M165.638 5.94409H151.152M182.254 3.43189L181.728 4.05229L181.463 4.36393L180.124 5.94409M182.254 3.43189H196.503M180.124 5.94409H194.611M196.503 3.43189L196.27 3.74113L194.611 5.94409M151.152 5.94409H136.666M107.693 5.94409H122.179M107.693 5.94409H93.2071M125.255 3.43189L124.496 4.05229L124.113 4.36393L122.179 5.94409M125.255 3.43189H139.505M122.179 5.94409H136.666M139.505 3.43189L139.155 3.74113L136.666 5.94409M93.2071 5.94409H78.721M49.7484 5.94409H64.2348M49.7484 5.94409H35.2622M68.2565 3.43189L64.2348 5.94409M68.2565 3.43189H82.5061M64.2348 5.94409H78.721M82.5061 3.43189L81.5717 4.05229L81.1013 4.36393L78.721 5.94409M35.2622 5.94409H20.7761M11.2583 3.43189L6.28992 5.94409M11.2583 3.43189H25.5079M11.2583 3.43189H1.16659M6.28992 5.94409H20.7761M6.28992 5.94409L1.16659 8.535M6.28992 5.94409H1.16659M25.5079 3.43189L24.3395 4.05229L20.7761 5.94409M595.492 3.43189L596.66 4.05229L600.224 5.94409M600.224 5.94409H614.71M614.71 5.94409L619.833 8.53501M614.71 5.94409H619.833M619.833 125.852V122.788M619.833 125.852V130.933M619.833 122.788V115.105M619.833 130.933V132.451V139.584M619.833 139.584V148.789M619.833 66.437V61.5914M619.833 66.437V71.1042M619.833 3.43189V5.94409M619.833 5.94409V8.53501M619.833 8.53501L619.846 8.54135H619.833M619.833 8.53501V8.54135M619.833 8.54135V11.2275M619.833 11.2275V14.0079M619.833 14.0079V16.3559M619.833 16.3559V16.8871M619.833 16.8871V19.8706M619.833 19.8706V22.964M619.833 22.964V25.0002M619.833 25.0002V26.1736M619.833 26.1736V29.5059M619.833 29.5059V32.9688M619.833 32.9688V34.6054M619.833 34.6054V36.5693M619.833 36.5693V40.3161M619.833 40.3161V44.2182M619.833 44.2182V45.3402M619.833 45.3402V48.2857M619.833 48.2857V52.5291M619.833 52.5291V56.9599M619.833 56.9599V57.4171M619.833 57.4171V61.5914M619.833 71.512V76.8332M619.833 71.512V71.1042M619.833 76.8332V82.4193M619.833 82.4193V86.7464M619.833 86.7464V88.2897M619.833 88.2897V94.4674M619.833 94.4674V100.977M619.833 100.977V104.795M619.833 104.795V107.846M619.833 107.846V115.105M619.833 148.789V150.738M619.833 150.738V158.602M619.833 158.602V169.088M619.833 169.088V180.315M619.833 180.315V180.601M619.833 180.601V192.368M619.833 192.368V205.34M619.833 205.34V217.1M619.833 217.1V219.34M619.833 219.34V234.495M619.833 234.495V250.956M619.833 250.956V262.723M619.833 262.723V268.897M619.833 268.897V288.528M619.833 288.528V310.1M619.833 310.1V321.382M619.833 321.382V333.915M619.833 333.915V334H1.16659V333.915M1.16659 71.512V76.8332M1.16659 71.512V71.1042M1.16659 71.1042V66.437M1.16659 66.437V61.5914M1.16659 61.5914V57.4171M1.16659 57.4171V56.9599M1.16659 56.9599V52.5291M1.16659 52.5291V48.2857M1.16659 48.2857V45.3402M1.16659 45.3402V44.2182M1.16659 44.2182V40.3161M1.16659 40.3161V36.5693M1.16659 36.5693V34.6054M1.16659 34.6054V32.9688M1.16659 32.9688V29.5059M1.16659 29.5059V26.1736M1.16659 26.1736V25.0002M1.16659 25.0002V22.964M1.16659 22.964V19.8706M1.16659 19.8706V16.8871M1.16659 16.8871V16.3559M1.16659 16.3559V14.0079M1.16659 14.0079V11.2275M1.16659 11.2275V8.54135M1.16659 8.54135H1.15402L1.16659 8.535M1.16659 8.54135V8.535M1.16659 8.535V5.94409M1.16659 5.94409V3.43189M1.16659 333.915V321.382M1.16659 321.382V310.1M1.16659 310.1V288.528M1.16659 288.528V268.897M1.16659 268.897V262.723M1.16659 262.723V250.956M1.16659 250.956V234.495M1.16659 234.495V219.34M1.16659 219.34V217.099M1.16659 217.099V205.34M1.16659 205.34V192.368M1.16659 192.368V180.601M1.16659 180.601V180.315M1.16659 180.315V169.088M1.16659 169.088V158.602M1.16659 158.602V150.738M1.16659 150.738V148.789M1.16659 148.789V139.584M1.16659 139.584V130.933M1.16659 130.933V125.852M1.16659 125.852V122.788M1.16659 122.788V115.105M1.16659 115.105V107.846M1.16659 107.846V104.795M1.16659 104.795V100.977M1.16659 100.977V94.4674M1.16659 94.4674V88.2897M1.16659 88.2897V86.7464M1.16659 86.7464V82.4193M1.16659 82.4193V76.8332" stroke="url(#paint0_linear_2025_43)" stroke-width="0.273145" stroke-miterlimit="10" stroke-linecap="round" stroke-linejoin="round"/>
<defs>
<linearGradient id="paint0_linear_2025_43" x1="310.5" y1="1" x2="310.5" y2="234.474" gradientUnits="userSpaceOnUse">
<stop stop-color="#7226FF" stop-opacity="0"/>
<stop offset="1" stop-color="#7226FF"/>
</linearGradient>
</defs>
</svg>
